<svg width="1920" height="1080" viewBox="0 0 1920 1080" fill="none" xmlns="http://www.w3.org/2000/svg">
<g clip-path="url(#clip0_1734_4342)">
<rect width="1920" height="1080" fill="url(#paint0_linear_1734_4342)"/>
<g opacity="0.54">
<circle cx="672.335" cy="62.2145" r="3.78869" fill="#D9D9D9"/>
<circle cx="562.848" cy="81.193" r="3.78869" fill="#D9D9D9"/>
<circle cx="223.87" cy="58.4254" r="3.78869" fill="#D9D9D9"/>
<circle cx="893.549" cy="73.6149" r="3.78869" fill="#D9D9D9"/>
<circle cx="60.036" cy="125.078" r="3.78869" fill="#D9D9D9"/>
<circle cx="306.402" cy="126.07" r="3.78869" fill="#D9D9D9"/>
<circle cx="596.535" cy="236.254" r="3.78869" fill="#D9D9D9"/>
<circle cx="422.281" cy="175.9" r="3.78869" fill="#D9D9D9"/>
<circle cx="484.863" cy="228.675" r="3.78869" fill="#D9D9D9"/>
<circle cx="965.081" cy="195.541" r="3.78869" fill="#D9D9D9"/>
<circle cx="223.87" cy="200.648" r="3.78869" fill="#D9D9D9"/>
<circle cx="9.3941" cy="258.609" r="3.78869" fill="#D9D9D9"/>
<circle cx="583.586" cy="137.693" r="1.97258" fill="#D9D9D9"/>
<circle cx="752.049" cy="58.4257" r="1.97258" fill="#D9D9D9"/>
<circle cx="413.241" cy="92.4667" r="1.97258" fill="#D9D9D9"/>
<circle cx="489.612" cy="125.236" r="1.97258" fill="#D9D9D9"/>
<circle cx="620.147" cy="67.9765" r="1.97258" fill="#D9D9D9"/>
<circle cx="645.659" cy="183.82" r="1.97258" fill="#D9D9D9"/>
<circle cx="302.613" cy="67.9765" r="1.97258" fill="#D9D9D9"/>
<circle cx="198.197" cy="123.262" r="1.97258" fill="#D9D9D9"/>
<circle cx="330.211" cy="170.139" r="1.97258" fill="#D9D9D9"/>
<circle cx="137.303" cy="67.9765" r="1.97258" fill="#D9D9D9"/>
<circle cx="933.37" cy="115.18" r="1.97258" fill="#D9D9D9"/>
<circle cx="701.765" cy="232.463" r="1.97258" fill="#D9D9D9"/>
<circle cx="3.78869" cy="3.78869" r="3.78869" transform="matrix(-1 0 0 1 754.394 278.514)" fill="#D9D9D9" fill-opacity="0.45"/>
<circle cx="3.78869" cy="3.78869" r="3.78869" transform="matrix(-1 0 0 1 84.7147 293.703)" fill="#D9D9D9" fill-opacity="0.45"/>
<circle cx="3.78869" cy="3.78869" r="3.78869" transform="matrix(-1 0 0 1 968.87 321.473)" fill="#D9D9D9" fill-opacity="0.45"/>
<circle cx="3.78869" cy="3.78869" r="3.78869" transform="matrix(-1 0 0 1 671.862 346.158)" fill="#D9D9D9" fill-opacity="0.45"/>
<circle cx="3.78869" cy="3.78869" r="3.78869" transform="matrix(-1 0 0 1 452.391 431.277)" fill="#D9D9D9" fill-opacity="0.45"/>
<circle cx="3.78869" cy="3.78869" r="3.78869" transform="matrix(-1 0 0 1 555.983 395.986)" fill="#D9D9D9" fill-opacity="0.45"/>
<circle cx="3.78869" cy="3.78869" r="3.78869" transform="matrix(-1 0 0 1 13.1827 415.627)" fill="#D9D9D9" fill-opacity="0.45"/>
<circle cx="3.78869" cy="3.78869" r="3.78869" transform="matrix(-1 0 0 1 754.394 420.736)" fill="#D9D9D9" fill-opacity="0.45"/>
<circle cx="3.78869" cy="3.78869" r="3.78869" transform="matrix(-1 0 0 1 968.87 478.697)" fill="#D9D9D9" fill-opacity="0.45"/>
<circle cx="1.97258" cy="1.97258" r="1.97258" transform="matrix(-1 0 0 1 392.862 359.598)" fill="#D9D9D9" fill-opacity="0.45"/>
<circle cx="1.97258" cy="1.97258" r="1.97258" transform="matrix(-1 0 0 1 224.399 280.33)" fill="#D9D9D9" fill-opacity="0.45"/>
<circle cx="1.97258" cy="1.97258" r="1.97258" transform="matrix(-1 0 0 1 563.207 314.371)" fill="#D9D9D9" fill-opacity="0.45"/>
<circle cx="1.97258" cy="1.97258" r="1.97258" transform="matrix(-1 0 0 1 486.836 347.141)" fill="#D9D9D9" fill-opacity="0.45"/>
<circle cx="1.97258" cy="1.97258" r="1.97258" transform="matrix(-1 0 0 1 356.301 289.879)" fill="#D9D9D9" fill-opacity="0.45"/>
<circle cx="1.97258" cy="1.97258" r="1.97258" transform="matrix(-1 0 0 1 330.789 405.727)" fill="#D9D9D9" fill-opacity="0.45"/>
<circle cx="1.97258" cy="1.97258" r="1.97258" transform="matrix(-1 0 0 1 673.834 289.879)" fill="#D9D9D9" fill-opacity="0.45"/>
<circle cx="1.97258" cy="1.97258" r="1.97258" transform="matrix(-1 0 0 1 778.251 345.168)" fill="#D9D9D9" fill-opacity="0.45"/>
<circle cx="1.97258" cy="1.97258" r="1.97258" transform="matrix(-1 0 0 1 646.237 392.043)" fill="#D9D9D9" fill-opacity="0.45"/>
<circle cx="1.97258" cy="1.97258" r="1.97258" transform="matrix(-1 0 0 1 875.445 367.322)" fill="#D9D9D9" fill-opacity="0.45"/>
<circle cx="1.97258" cy="1.97258" r="1.97258" transform="matrix(-1 0 0 1 43.0776 337.084)" fill="#D9D9D9" fill-opacity="0.45"/>
<circle cx="1.97258" cy="1.97258" r="1.97258" transform="matrix(-1 0 0 1 278.414 347.141)" fill="#D9D9D9" fill-opacity="0.45"/>
<circle cx="222.427" cy="419.416" r="3.78869" fill="#D9D9D9" fill-opacity="0.45"/>
<circle cx="871.323" cy="486.685" r="3.78869" fill="#D9D9D9" fill-opacity="0.45"/>
<circle cx="284.176" cy="539.14" r="3.78869" fill="#D9D9D9" fill-opacity="0.45"/>
<circle cx="574.308" cy="649.324" r="3.78869" fill="#D9D9D9" fill-opacity="0.45"/>
<circle cx="400.055" cy="588.97" r="3.78869" fill="#D9D9D9" fill-opacity="0.45"/>
<circle cx="942.855" cy="608.611" r="3.78869" fill="#D9D9D9" fill-opacity="0.45"/>
<circle cx="201.644" cy="613.718" r="3.78869" fill="#D9D9D9" fill-opacity="0.45"/>
<circle cx="561.36" cy="550.764" r="1.97258" fill="#D9D9D9" fill-opacity="0.45"/>
<circle cx="729.822" cy="471.496" r="1.97258" fill="#D9D9D9" fill-opacity="0.45"/>
<circle cx="391.015" cy="505.537" r="1.97258" fill="#D9D9D9" fill-opacity="0.45"/>
<circle cx="467.386" cy="538.307" r="1.97258" fill="#D9D9D9" fill-opacity="0.45"/>
<circle cx="597.92" cy="481.047" r="1.97258" fill="#D9D9D9" fill-opacity="0.45"/>
<circle cx="623.433" cy="596.891" r="1.97258" fill="#D9D9D9" fill-opacity="0.45"/>
<circle cx="280.387" cy="481.047" r="1.97258" fill="#D9D9D9" fill-opacity="0.45"/>
<circle cx="175.97" cy="536.332" r="1.97258" fill="#D9D9D9" fill-opacity="0.45"/>
<circle cx="307.985" cy="583.209" r="1.97258" fill="#D9D9D9" fill-opacity="0.45"/>
<circle cx="115.076" cy="481.047" r="1.97258" fill="#D9D9D9" fill-opacity="0.45"/>
<circle cx="911.144" cy="528.25" r="1.97258" fill="#D9D9D9" fill-opacity="0.45"/>
<circle cx="679.538" cy="645.533" r="1.97258" fill="#D9D9D9" fill-opacity="0.45"/>
<path d="M381.342 232.552C381.342 234.645 379.645 236.341 377.553 236.341C375.46 236.341 373.764 234.645 373.764 232.552C373.764 230.46 375.46 228.764 377.553 228.764C379.645 228.764 381.342 230.46 381.342 232.552Z" fill="#D9D9D9"/>
</g>
<g opacity="0.54">
<circle cx="1731.32" cy="62.2145" r="3.78869" fill="#D9D9D9"/>
<circle cx="1621.83" cy="81.193" r="3.78869" fill="#D9D9D9"/>
<circle cx="1282.85" cy="58.4254" r="3.78869" fill="#D9D9D9"/>
<circle cx="1119.02" cy="125.078" r="3.78869" fill="#D9D9D9"/>
<circle cx="1365.38" cy="126.07" r="3.78869" fill="#D9D9D9"/>
<circle cx="1655.52" cy="236.254" r="3.78869" fill="#D9D9D9"/>
<circle cx="1481.26" cy="175.9" r="3.78869" fill="#D9D9D9"/>
<circle cx="1543.84" cy="228.675" r="3.78869" fill="#D9D9D9"/>
<circle cx="1282.85" cy="200.648" r="3.78869" fill="#D9D9D9"/>
<circle cx="1068.38" cy="258.609" r="3.78869" fill="#D9D9D9"/>
<circle cx="1642.57" cy="137.693" r="1.97258" fill="#D9D9D9"/>
<circle cx="1811.03" cy="58.4257" r="1.97258" fill="#D9D9D9"/>
<circle cx="1472.22" cy="92.4667" r="1.97258" fill="#D9D9D9"/>
<circle cx="1548.59" cy="125.236" r="1.97258" fill="#D9D9D9"/>
<circle cx="1679.13" cy="67.9765" r="1.97258" fill="#D9D9D9"/>
<circle cx="1704.64" cy="183.82" r="1.97258" fill="#D9D9D9"/>
<circle cx="1361.59" cy="67.9765" r="1.97258" fill="#D9D9D9"/>
<circle cx="1257.18" cy="123.262" r="1.97258" fill="#D9D9D9"/>
<circle cx="1389.19" cy="170.139" r="1.97258" fill="#D9D9D9"/>
<circle cx="1196.28" cy="67.9765" r="1.97258" fill="#D9D9D9"/>
<circle cx="1760.75" cy="232.463" r="1.97258" fill="#D9D9D9"/>
<circle cx="3.78869" cy="3.78869" r="3.78869" transform="matrix(-1 0 0 1 1813.38 278.514)" fill="#D9D9D9" fill-opacity="0.45"/>
<circle cx="3.78869" cy="3.78869" r="3.78869" transform="matrix(-1 0 0 1 1143.7 293.703)" fill="#D9D9D9" fill-opacity="0.45"/>
<circle cx="3.78869" cy="3.78869" r="3.78869" transform="matrix(-1 0 0 1 1730.84 346.158)" fill="#D9D9D9" fill-opacity="0.45"/>
<circle cx="3.78869" cy="3.78869" r="3.78869" transform="matrix(-1 0 0 1 1511.37 431.277)" fill="#D9D9D9" fill-opacity="0.45"/>
<circle cx="3.78869" cy="3.78869" r="3.78869" transform="matrix(-1 0 0 1 1614.96 395.986)" fill="#D9D9D9" fill-opacity="0.45"/>
<circle cx="3.78869" cy="3.78869" r="3.78869" transform="matrix(-1 0 0 1 1072.16 415.627)" fill="#D9D9D9" fill-opacity="0.45"/>
<circle cx="3.78869" cy="3.78869" r="3.78869" transform="matrix(-1 0 0 1 1813.38 420.736)" fill="#D9D9D9" fill-opacity="0.45"/>
<circle cx="1.97258" cy="1.97258" r="1.97258" transform="matrix(-1 0 0 1 1451.84 359.598)" fill="#D9D9D9" fill-opacity="0.45"/>
<circle cx="1.97258" cy="1.97258" r="1.97258" transform="matrix(-1 0 0 1 1283.38 280.33)" fill="#D9D9D9" fill-opacity="0.45"/>
<circle cx="1.97258" cy="1.97258" r="1.97258" transform="matrix(-1 0 0 1 1622.19 314.371)" fill="#D9D9D9" fill-opacity="0.45"/>
<circle cx="1.97258" cy="1.97258" r="1.97258" transform="matrix(-1 0 0 1 1545.82 347.141)" fill="#D9D9D9" fill-opacity="0.45"/>
<circle cx="1.97258" cy="1.97258" r="1.97258" transform="matrix(-1 0 0 1 1415.28 289.879)" fill="#D9D9D9" fill-opacity="0.45"/>
<circle cx="1.97258" cy="1.97258" r="1.97258" transform="matrix(-1 0 0 1 1389.77 405.727)" fill="#D9D9D9" fill-opacity="0.45"/>
<circle cx="1.97258" cy="1.97258" r="1.97258" transform="matrix(-1 0 0 1 1732.82 289.879)" fill="#D9D9D9" fill-opacity="0.45"/>
<circle cx="1.97258" cy="1.97258" r="1.97258" transform="matrix(-1 0 0 1 1837.23 345.168)" fill="#D9D9D9" fill-opacity="0.45"/>
<circle cx="1.97258" cy="1.97258" r="1.97258" transform="matrix(-1 0 0 1 1705.22 392.043)" fill="#D9D9D9" fill-opacity="0.45"/>
<circle cx="1.97258" cy="1.97258" r="1.97258" transform="matrix(-1 0 0 1 1102.06 337.084)" fill="#D9D9D9" fill-opacity="0.45"/>
<circle cx="1.97258" cy="1.97258" r="1.97258" transform="matrix(-1 0 0 1 1337.4 347.141)" fill="#D9D9D9" fill-opacity="0.45"/>
<circle cx="1281.41" cy="419.416" r="3.78869" fill="#D9D9D9" fill-opacity="0.45"/>
<circle cx="1046.15" cy="514.457" r="3.78869" fill="#D9D9D9" fill-opacity="0.45"/>
<circle cx="1343.16" cy="539.14" r="3.78869" fill="#D9D9D9" fill-opacity="0.45"/>
<circle cx="1633.29" cy="649.324" r="3.78869" fill="#D9D9D9" fill-opacity="0.45"/>
<circle cx="1459.04" cy="588.97" r="3.78869" fill="#D9D9D9" fill-opacity="0.45"/>
<circle cx="1260.63" cy="613.718" r="3.78869" fill="#D9D9D9" fill-opacity="0.45"/>
<circle cx="1046.15" cy="671.679" r="3.78869" fill="#D9D9D9" fill-opacity="0.45"/>
<circle cx="1620.34" cy="550.764" r="1.97258" fill="#D9D9D9" fill-opacity="0.45"/>
<circle cx="1788.8" cy="471.496" r="1.97258" fill="#D9D9D9" fill-opacity="0.45"/>
<circle cx="1450" cy="505.537" r="1.97258" fill="#D9D9D9" fill-opacity="0.45"/>
<circle cx="1526.37" cy="538.307" r="1.97258" fill="#D9D9D9" fill-opacity="0.45"/>
<circle cx="1656.9" cy="481.047" r="1.97258" fill="#D9D9D9" fill-opacity="0.45"/>
<circle cx="1682.41" cy="596.891" r="1.97258" fill="#D9D9D9" fill-opacity="0.45"/>
<circle cx="1339.37" cy="481.047" r="1.97258" fill="#D9D9D9" fill-opacity="0.45"/>
<circle cx="1234.95" cy="536.332" r="1.97258" fill="#D9D9D9" fill-opacity="0.45"/>
<circle cx="1366.97" cy="583.209" r="1.97258" fill="#D9D9D9" fill-opacity="0.45"/>
<circle cx="1174.06" cy="481.047" r="1.97258" fill="#D9D9D9" fill-opacity="0.45"/>
<circle cx="1738.52" cy="645.533" r="1.97258" fill="#D9D9D9" fill-opacity="0.45"/>
<path d="M1440.32 232.552C1440.32 234.645 1438.63 236.341 1436.53 236.341C1434.44 236.341 1432.75 234.645 1432.75 232.552C1432.75 230.46 1434.44 228.764 1436.53 228.764C1438.63 228.764 1440.32 230.46 1440.32 232.552Z" fill="#D9D9D9"/>
</g>
<g opacity="0.54">
<circle cx="672.335" cy="679.257" r="3.78869" fill="#D9D9D9"/>
<circle cx="562.848" cy="698.236" r="3.78869" fill="#D9D9D9"/>
<circle cx="223.87" cy="675.468" r="3.78869" fill="#D9D9D9"/>
<circle cx="893.549" cy="690.658" r="3.78869" fill="#D9D9D9"/>
<circle cx="60.036" cy="742.121" r="3.78869" fill="#D9D9D9"/>
<circle cx="306.402" cy="743.113" r="3.78869" fill="#D9D9D9"/>
<circle cx="596.535" cy="853.297" r="3.78869" fill="#D9D9D9"/>
<circle cx="422.281" cy="792.943" r="3.78869" fill="#D9D9D9"/>
<circle cx="484.863" cy="845.718" r="3.78869" fill="#D9D9D9"/>
<circle cx="965.081" cy="812.584" r="3.78869" fill="#D9D9D9"/>
<circle cx="223.87" cy="817.691" r="3.78869" fill="#D9D9D9"/>
<circle cx="9.3941" cy="875.652" r="3.78869" fill="#D9D9D9"/>
<circle cx="583.586" cy="754.736" r="1.97258" fill="#D9D9D9"/>
<circle cx="752.049" cy="675.469" r="1.97258" fill="#D9D9D9"/>
<circle cx="413.241" cy="709.51" r="1.97258" fill="#D9D9D9"/>
<circle cx="489.612" cy="742.279" r="1.97258" fill="#D9D9D9"/>
<circle cx="620.147" cy="685.019" r="1.97258" fill="#D9D9D9"/>
<circle cx="645.659" cy="800.863" r="1.97258" fill="#D9D9D9"/>
<circle cx="302.613" cy="685.019" r="1.97258" fill="#D9D9D9"/>
<circle cx="198.197" cy="740.305" r="1.97258" fill="#D9D9D9"/>
<circle cx="330.211" cy="787.182" r="1.97258" fill="#D9D9D9"/>
<circle cx="137.303" cy="685.019" r="1.97258" fill="#D9D9D9"/>
<circle cx="933.37" cy="732.223" r="1.97258" fill="#D9D9D9"/>
<circle cx="701.765" cy="849.506" r="1.97258" fill="#D9D9D9"/>
<circle cx="3.78869" cy="3.78869" r="3.78869" transform="matrix(-1 0 0 1 754.394 895.557)" fill="#D9D9D9" fill-opacity="0.45"/>
<circle cx="3.78869" cy="3.78869" r="3.78869" transform="matrix(-1 0 0 1 84.7147 910.746)" fill="#D9D9D9" fill-opacity="0.45"/>
<circle cx="3.78869" cy="3.78869" r="3.78869" transform="matrix(-1 0 0 1 968.87 938.516)" fill="#D9D9D9" fill-opacity="0.45"/>
<circle cx="3.78869" cy="3.78869" r="3.78869" transform="matrix(-1 0 0 1 671.862 963.201)" fill="#D9D9D9" fill-opacity="0.45"/>
<circle cx="3.78869" cy="3.78869" r="3.78869" transform="matrix(-1 0 0 1 452.391 1048.32)" fill="#D9D9D9" fill-opacity="0.45"/>
<circle cx="3.78869" cy="3.78869" r="3.78869" transform="matrix(-1 0 0 1 555.983 1013.03)" fill="#D9D9D9" fill-opacity="0.45"/>
<circle cx="3.78869" cy="3.78869" r="3.78869" transform="matrix(-1 0 0 1 13.1827 1032.67)" fill="#D9D9D9" fill-opacity="0.45"/>
<circle cx="3.78869" cy="3.78869" r="3.78869" transform="matrix(-1 0 0 1 754.394 1037.78)" fill="#D9D9D9" fill-opacity="0.45"/>
<circle cx="1.97258" cy="1.97258" r="1.97258" transform="matrix(-1 0 0 1 392.862 976.641)" fill="#D9D9D9" fill-opacity="0.45"/>
<circle cx="1.97258" cy="1.97258" r="1.97258" transform="matrix(-1 0 0 1 224.399 897.373)" fill="#D9D9D9" fill-opacity="0.45"/>
<circle cx="1.97258" cy="1.97258" r="1.97258" transform="matrix(-1 0 0 1 563.207 931.414)" fill="#D9D9D9" fill-opacity="0.45"/>
<circle cx="1.97258" cy="1.97258" r="1.97258" transform="matrix(-1 0 0 1 486.836 964.184)" fill="#D9D9D9" fill-opacity="0.45"/>
<circle cx="1.97258" cy="1.97258" r="1.97258" transform="matrix(-1 0 0 1 356.301 906.922)" fill="#D9D9D9" fill-opacity="0.45"/>
<circle cx="1.97258" cy="1.97258" r="1.97258" transform="matrix(-1 0 0 1 330.789 1022.77)" fill="#D9D9D9" fill-opacity="0.45"/>
<circle cx="1.97258" cy="1.97258" r="1.97258" transform="matrix(-1 0 0 1 673.834 906.922)" fill="#D9D9D9" fill-opacity="0.45"/>
<circle cx="1.97258" cy="1.97258" r="1.97258" transform="matrix(-1 0 0 1 778.251 962.211)" fill="#D9D9D9" fill-opacity="0.45"/>
<circle cx="1.97258" cy="1.97258" r="1.97258" transform="matrix(-1 0 0 1 646.237 1009.09)" fill="#D9D9D9" fill-opacity="0.45"/>
<circle cx="1.97258" cy="1.97258" r="1.97258" transform="matrix(-1 0 0 1 875.445 984.365)" fill="#D9D9D9" fill-opacity="0.45"/>
<circle cx="1.97258" cy="1.97258" r="1.97258" transform="matrix(-1 0 0 1 43.0776 954.127)" fill="#D9D9D9" fill-opacity="0.45"/>
<circle cx="1.97258" cy="1.97258" r="1.97258" transform="matrix(-1 0 0 1 278.414 964.184)" fill="#D9D9D9" fill-opacity="0.45"/>
<circle cx="222.427" cy="1036.46" r="3.78869" fill="#D9D9D9" fill-opacity="0.45"/>
<path d="M381.342 849.595C381.342 851.688 379.645 853.384 377.553 853.384C375.46 853.384 373.764 851.688 373.764 849.595C373.764 847.503 375.46 845.807 377.553 845.807C379.645 845.807 381.342 847.503 381.342 849.595Z" fill="#D9D9D9"/>
</g>
<g opacity="0.54">
<circle cx="1731.32" cy="679.257" r="3.78869" fill="#D9D9D9"/>
<circle cx="1621.83" cy="698.236" r="3.78869" fill="#D9D9D9"/>
<circle cx="1282.85" cy="675.468" r="3.78869" fill="#D9D9D9"/>
<circle cx="1119.02" cy="742.121" r="3.78869" fill="#D9D9D9"/>
<circle cx="1365.38" cy="743.113" r="3.78869" fill="#D9D9D9"/>
<circle cx="1655.52" cy="853.297" r="3.78869" fill="#D9D9D9"/>
<circle cx="1481.26" cy="792.943" r="3.78869" fill="#D9D9D9"/>
<circle cx="1543.84" cy="845.718" r="3.78869" fill="#D9D9D9"/>
<circle cx="1282.85" cy="817.691" r="3.78869" fill="#D9D9D9"/>
<circle cx="1068.38" cy="875.652" r="3.78869" fill="#D9D9D9"/>
<circle cx="1642.57" cy="754.736" r="1.97258" fill="#D9D9D9"/>
<circle cx="1811.03" cy="675.469" r="1.97258" fill="#D9D9D9"/>
<circle cx="1472.22" cy="709.51" r="1.97258" fill="#D9D9D9"/>
<circle cx="1548.59" cy="742.279" r="1.97258" fill="#D9D9D9"/>
<circle cx="1679.13" cy="685.019" r="1.97258" fill="#D9D9D9"/>
<circle cx="1704.64" cy="800.863" r="1.97258" fill="#D9D9D9"/>
<circle cx="1361.59" cy="685.019" r="1.97258" fill="#D9D9D9"/>
<circle cx="1257.18" cy="740.305" r="1.97258" fill="#D9D9D9"/>
<circle cx="1389.19" cy="787.182" r="1.97258" fill="#D9D9D9"/>
<circle cx="1196.28" cy="685.019" r="1.97258" fill="#D9D9D9"/>
<circle cx="1760.75" cy="849.506" r="1.97258" fill="#D9D9D9"/>
<circle cx="3.78869" cy="3.78869" r="3.78869" transform="matrix(-1 0 0 1 1813.38 895.557)" fill="#D9D9D9" fill-opacity="0.45"/>
<circle cx="3.78869" cy="3.78869" r="3.78869" transform="matrix(-1 0 0 1 1143.7 910.746)" fill="#D9D9D9" fill-opacity="0.45"/>
<circle cx="3.78869" cy="3.78869" r="3.78869" transform="matrix(-1 0 0 1 1730.84 963.201)" fill="#D9D9D9" fill-opacity="0.45"/>
<circle cx="3.78869" cy="3.78869" r="3.78869" transform="matrix(-1 0 0 1 1511.37 1048.32)" fill="#D9D9D9" fill-opacity="0.45"/>
<circle cx="3.78869" cy="3.78869" r="3.78869" transform="matrix(-1 0 0 1 1614.96 1013.03)" fill="#D9D9D9" fill-opacity="0.45"/>
<circle cx="3.78869" cy="3.78869" r="3.78869" transform="matrix(-1 0 0 1 1072.16 1032.67)" fill="#D9D9D9" fill-opacity="0.45"/>
<circle cx="3.78869" cy="3.78869" r="3.78869" transform="matrix(-1 0 0 1 1813.38 1037.78)" fill="#D9D9D9" fill-opacity="0.45"/>
<circle cx="1.97258" cy="1.97258" r="1.97258" transform="matrix(-1 0 0 1 1451.84 976.641)" fill="#D9D9D9" fill-opacity="0.45"/>
<circle cx="1.97258" cy="1.97258" r="1.97258" transform="matrix(-1 0 0 1 1283.38 897.373)" fill="#D9D9D9" fill-opacity="0.45"/>
<circle cx="1.97258" cy="1.97258" r="1.97258" transform="matrix(-1 0 0 1 1622.19 931.414)" fill="#D9D9D9" fill-opacity="0.45"/>
<circle cx="1.97258" cy="1.97258" r="1.97258" transform="matrix(-1 0 0 1 1545.82 964.184)" fill="#D9D9D9" fill-opacity="0.45"/>
<circle cx="1.97258" cy="1.97258" r="1.97258" transform="matrix(-1 0 0 1 1415.28 906.922)" fill="#D9D9D9" fill-opacity="0.45"/>
<circle cx="1.97258" cy="1.97258" r="1.97258" transform="matrix(-1 0 0 1 1389.77 1022.77)" fill="#D9D9D9" fill-opacity="0.45"/>
<circle cx="1.97258" cy="1.97258" r="1.97258" transform="matrix(-1 0 0 1 1732.82 906.922)" fill="#D9D9D9" fill-opacity="0.45"/>
<circle cx="1.97258" cy="1.97258" r="1.97258" transform="matrix(-1 0 0 1 1837.23 962.211)" fill="#D9D9D9" fill-opacity="0.45"/>
<circle cx="1.97258" cy="1.97258" r="1.97258" transform="matrix(-1 0 0 1 1705.22 1009.09)" fill="#D9D9D9" fill-opacity="0.45"/>
<circle cx="1.97258" cy="1.97258" r="1.97258" transform="matrix(-1 0 0 1 1102.06 954.127)" fill="#D9D9D9" fill-opacity="0.45"/>
<circle cx="1.97258" cy="1.97258" r="1.97258" transform="matrix(-1 0 0 1 1337.4 964.184)" fill="#D9D9D9" fill-opacity="0.45"/>
<circle cx="1281.41" cy="1036.46" r="3.78869" fill="#D9D9D9" fill-opacity="0.45"/>
<path d="M1440.32 849.595C1440.32 851.688 1438.63 853.384 1436.53 853.384C1434.44 853.384 1432.75 851.688 1432.75 849.595C1432.75 847.503 1434.44 845.807 1436.53 845.807C1438.63 845.807 1440.32 847.503 1440.32 849.595Z" fill="#D9D9D9"/>
</g>
</g>
<defs>
<linearGradient id="paint0_linear_1734_4342" x1="960" y1="0" x2="960" y2="1080" gradientUnits="userSpaceOnUse">
<stop stop-color="#001433"/>
<stop offset="1" stop-color="#003D99"/>
</linearGradient>
<clipPath id="clip0_1734_4342">
<rect width="1920" height="1080" fill="white"/>
</clipPath>
</defs>
</svg>
