<svg width="2884" height="1417" viewBox="0 0 2884 1417" fill="none" xmlns="http://www.w3.org/2000/svg">
<g clip-path="url(#clip0_115_202)">
<rect width="2884" height="1416" transform="translate(0 0.0488281)" fill="url(#paint0_linear_115_202)"/>
<path d="M3270.7 -1087.62L-151.152 -1087.62M3270.7 -971.696L-151.152 -971.697M3270.7 -855.768L-151.152 -855.769M3270.7 -739.84L-151.152 -739.84M3270.7 -623.912L-151.152 -623.912M3270.7 -507.983L-151.152 -507.984M3270.7 -392.055L-151.152 -392.056M3270.7 -276.127L-151.152 -276.127M3270.7 -160.199L-151.152 -160.199M3270.7 -44.2714L-151.153 -44.2716M3270.7 71.6564L-151.153 71.6561M3270.7 187.585L-151.153 187.585M3270.7 303.513L-151.153 303.513M3270.7 419.442L-151.153 419.441M3270.7 535.37L-151.152 535.369M3270.7 651.298L-151.152 651.298M3270.7 767.226L-151.152 767.226M3270.7 883.154L-151.152 883.154M3270.7 999.084L-151.153 999.083M3270.7 1115.01L-151.153 1115.01M3270.7 1230.94L-151.153 1230.94M3270.7 1346.87L-151.153 1346.87M3270.7 1462.8L-151.153 1462.8M3270.7 1578.72L-151.153 1578.72M108.981 -562.95L139.44 1634.16M224.909 -562.95L255.368 1634.16M340.837 -562.95L371.296 1634.16M456.766 -562.95L487.225 1634.16M572.694 -562.95L603.153 1634.16M688.622 -562.95L719.081 1634.16M804.55 -562.95L835.009 1634.16M919.962 -562.95L950.938 1634.16M1036.41 -562.95L1066.87 1634.16M1152.33 -562.95L1182.79 1634.16M1268.26 -562.95L1298.72 1634.16M1384.19 -562.95L1414.65 1634.16M1500.12 -562.95L1530.58 1634.16M1616.05 -562.95L1646.51 1634.16M1731.98 -562.95L1762.44 1634.16M1847.9 -562.95L1878.36 1634.16M1963.83 -562.95L1994.29 1634.16M2079.76 -562.95L2110.22 1634.16M2195.69 -562.95L2226.15 1634.16M2311.62 -562.95L2342.08 1634.16M2427.55 -562.95L2458 1634.16M2543.47 -562.95L2573.93 1634.16M2659.4 -562.95L2689.86 1634.16M2775.33 -562.95L2805.79 1634.16" stroke="#99C2FF"/>
<mask id="mask0_115_202" style="mask-type:alpha" maskUnits="userSpaceOnUse" x="1984" y="849" width="1194" height="737">
<path d="M2567.88 856.237L1984.24 909.889L2200.37 1211.21L2907.13 1585.33L3177.73 849.72L2567.88 856.237Z" fill="#D9D9D9"/>
</mask>
<g mask="url(#mask0_115_202)">
<path d="M1932.2 972.172L2747.12 388.287L3091.99 1565.95L2292 1474.34L1932.2 972.172Z" fill="#726AC9"/>
<path d="M2401.33 636.045L2480.62 579.234L2892.58 1317.69L2401.33 636.045Z" fill="#342F91"/>
<path d="M1905.43 969.691L1999.91 961.994L2296.26 1477.96L1905.43 969.691Z" fill="#342F91"/>
<path d="M2546.7 531.89L2726.5 389.733L2960.15 1108.94L2546.7 531.89Z" fill="#5F5DC4"/>
<path d="M1998.97 967.665L2178.77 825.508L2471.21 1359.27L2303.69 1497.63L1998.97 967.665Z" fill="#342EA7"/>
<path d="M2127.81 875.348L2207.1 818.537L2421.72 1118.08L2127.81 875.348Z" fill="#8E86DE"/>
<path d="M2517.9 659.182L2597.19 602.371L2907.28 1035.16L2887.64 1065.9L2517.9 659.182Z" fill="#8E86DE"/>
<path d="M2257.88 752.162L2407.65 644.854L2870.29 1278.97L2867.09 1274.58L2257.88 752.162Z" fill="#5F5DC4"/>
<path d="M2175.34 957.96L2201.92 932.251L2421.72 1118.08L2886.71 1471.41L2473.59 1374.23L2175.34 957.96Z" fill="#5F5DC4"/>
<path d="M1991.49 909.053L2140.85 849.343L2844.47 1535.95L2478.79 1372.17L2016.79 952.193L1982.35 909.053L1991.49 909.053Z" fill="#3E40B7"/>
</g>
<path d="M2353.5 802.76L1989.95 908.796L2098.42 908.796L2469.93 910.663L2945.45 853.543L2905.69 678.013L2353.5 802.76Z" fill="#5DAEC4"/>
<path d="M2716.66 684.46C2756.57 677.188 2793.4 691.029 2805.27 716.023C2810.71 714.458 2816.44 713.11 2822.38 712.028C2854.28 706.215 2883.05 709.722 2895.98 719.69L2648.09 764.867C2646.87 762.04 2645.96 759.077 2645.4 755.992C2639.69 724.698 2671.6 692.673 2716.66 684.46Z" fill="#32888B"/>
<path d="M2181.21 877.06L2181.83 840.287" stroke="#32888B" stroke-width="6.87775" stroke-linecap="round"/>
<circle cx="8.50673" cy="8.50673" r="8.50673" transform="matrix(-0.906681 0.421816 0.421816 0.906681 2201.04 818.84)" fill="#5F5DC4"/>
<circle cx="8.50673" cy="8.50673" r="8.50673" transform="matrix(-0.906681 0.421816 0.421816 0.906681 2203.11 805.367)" fill="#5F5DC4"/>
<circle cx="8.50673" cy="8.50673" r="8.50673" transform="matrix(-0.906681 0.421816 0.421816 0.906681 2197.53 793.369)" fill="#5F5DC4"/>
<circle cx="8.50673" cy="8.50673" r="8.50673" transform="matrix(-0.906681 0.421816 0.421816 0.906681 2183.26 789.582)" fill="#5F5DC4"/>
<circle cx="8.50673" cy="8.50673" r="8.50673" transform="matrix(-0.906681 0.421816 0.421816 0.906681 2171.26 795.166)" fill="#5F5DC4"/>
<circle cx="8.50673" cy="8.50673" r="8.50673" transform="matrix(-0.906681 0.421816 0.421816 0.906681 2164.96 808.518)" fill="#5F5DC4"/>
<circle cx="8.50673" cy="8.50673" r="8.50673" transform="matrix(-0.906681 0.421816 0.421816 0.906681 2173.06 821.436)" fill="#5F5DC4"/>
<circle cx="8.50673" cy="8.50673" r="8.50673" transform="matrix(-0.906681 0.421816 0.421816 0.906681 2187.33 825.219)" fill="#5F5DC4"/>
<circle cx="14.1779" cy="14.1779" r="14.1779" transform="matrix(-0.906681 0.421816 0.421816 0.906681 2188.04 799.867)" fill="white"/>
<path d="M2180.83 860.557L2172.22 851.011" stroke="#32888B" stroke-width="6.87775" stroke-linecap="round"/>
<path d="M2182.07 876.662L2192.47 867.652" stroke="#32888B" stroke-width="6.87775" stroke-linecap="round"/>
<path d="M2181.21 877.06L2172.54 869.626" stroke="#32888B" stroke-width="6.87775" stroke-linecap="round"/>
<g filter="url(#filter0_d_115_202)">
<path d="M2579.06 805.274L2589.74 803.237L2590.25 836.113L2584.91 843.182L2579.06 805.274Z" fill="black"/>
<path d="M2424.46 859.229C2424.46 859.229 2478.57 850.328 2509.17 842.104C2539.92 833.84 2564.05 819.283 2564.05 819.283L2593.22 814.905C2593.22 814.905 2544.05 851.143 2513.87 859.269C2483.86 867.348 2419.84 868.704 2419.84 868.704L2424.46 859.229Z" fill="#342EA7"/>
<path d="M2378.24 861.477C2378.61 857.332 2388.28 844.972 2388.28 844.972C2388.28 844.972 2380.76 864.416 2385.87 868.71C2390.91 872.937 2404.77 863.757 2404.77 863.757C2404.77 863.757 2402.71 871.828 2395.82 874.732C2382.66 880.27 2377.47 870.314 2378.24 861.477Z" fill="black"/>
<path d="M2377.47 825.801L2499.12 809.569L2498.85 837.879C2498.85 837.879 2453.76 864.669 2431.26 868.838C2409.2 872.925 2386.69 861.208 2386.69 861.208L2377.47 825.801Z" fill="#99C2FF"/>
<path d="M2416.76 764.118C2432.5 757.588 2472.42 765.232 2476.31 766.895C2480.21 768.559 2502.2 805.085 2498.49 810.857C2494.78 816.629 2450.01 838.352 2430.26 845.082C2410.51 851.812 2386.88 853.393 2378.75 830.149C2370.62 806.905 2401.02 770.647 2416.76 764.118Z" fill="#342F91"/>
<path d="M2419.78 784.282C2433.05 778.776 2471.25 772.435 2474.54 773.836C2477.82 775.238 2496.37 806.038 2493.24 810.905C2490.1 815.773 2452.36 834.089 2435.7 839.764C2419.05 845.438 2399.13 846.772 2392.27 827.173C2385.41 807.573 2406.5 789.788 2419.78 784.282Z" fill="black"/>
<path d="M2326.06 812.936L2351.12 808.155L2362.73 867.671L2358.75 867.224L2327.11 818.424L2326.06 812.936Z" fill="#348C51"/>
<g filter="url(#filter1_i_115_202)">
<path d="M2326.26 813.027L2465.05 752.73L2490.78 812.869L2362.69 867.688L2326.26 813.027Z" fill="#69DBCE"/>
</g>
<path d="M2367.96 782.374L2393.48 782.468L2393.5 843.105L2390.2 842.61L2364.12 791.064L2367.96 782.374Z" fill="#4C7ABF"/>
<g filter="url(#filter2_i_115_202)">
<path d="M2368.14 782.499L2515.89 749.822L2529.67 813.77L2393.46 843.113L2368.14 782.499Z" fill="#66A3FF"/>
</g>
<path d="M2572.88 755.196L2578.95 746.307L2598.37 762.321L2593.93 814.528L2584.97 818.575L2572.88 755.196Z" fill="#342EA7"/>
<g filter="url(#filter3_i_115_202)">
<path d="M2404.13 736.251L2485.37 720.754L2516.78 782.158L2506.95 833.915L2424.54 762.914L2393.12 765.588L2404.13 736.251Z" fill="#99C2FF"/>
</g>
<path d="M2499.86 778.614L2573.45 757.641C2573.45 757.641 2579.69 778.102 2581.84 790.997C2583.78 802.557 2585.09 818.669 2585.09 818.669L2492.12 841.462L2499.86 778.614Z" fill="#99C2FF"/>
<path d="M2544.76 774.541C2544.76 774.541 2553.61 789.364 2555.63 799.977C2557.44 809.515 2555.46 824.835 2555.46 824.835" stroke="#6693D5" stroke-width="5"/>
<mask id="mask1_115_202" style="mask-type:alpha" maskUnits="userSpaceOnUse" x="2453" y="704" width="131" height="83">
<path d="M2468.56 711.358L2541.8 704.72L2583.61 745.359L2574.62 763.783L2481.65 786.576L2453.27 731.898L2468.56 711.358Z" fill="#99C2FF"/>
</mask>
<g mask="url(#mask1_115_202)">
<path d="M2486.89 707.863L2632.52 694.664L2715.64 775.469L2697.77 812.102L2512.91 857.424L2468.66 757.301L2486.89 707.863Z" fill="#99C2FF"/>
<path d="M2470.91 740.719L2462.29 725.156L2506.73 790.82L2506.03 794.375L2470.91 740.719Z" fill="#6693D5"/>
</g>
<path d="M2550.05 740.352L2560.59 745.664" stroke="#342F91" stroke-width="5"/>
<path d="M2516.34 707.789L2544.23 741.462" stroke="black" stroke-width="5"/>
<path d="M2542.82 740.143L2552.59 738.278L2553.49 742.987L2543.22 742.271L2542.82 740.143Z" fill="#D9D9D9"/>
<path d="M2463.6 724.812L2503.51 772L2545.46 766.527" stroke="black" stroke-width="5"/>
<path d="M2498.26 781.287C2498.26 781.287 2524.84 780.501 2540.95 776.193C2554.66 772.528 2575.43 764.172 2575.43 764.172" stroke="#6693D5" stroke-width="5"/>
<path d="M2497.83 827.41L2500.04 839" stroke="#342F91" stroke-width="5"/>
<path d="M2546.91 774.129L2549.12 785.719" stroke="#342F91" stroke-width="5"/>
<path d="M2545.22 765.262L2549.64 774.179L2545.35 776.308L2543.28 766.224L2545.22 765.262Z" fill="#D9D9D9"/>
<path d="M2495.4 818.102L2499.82 827.019L2495.53 829.148L2493.46 819.064L2495.4 818.102Z" fill="#D9D9D9"/>
<path d="M2583.02 745.917L2525.72 758.119L2509.22 759.994L2485.38 710.314" stroke="#6693D5" stroke-width="5"/>
</g>
<g filter="url(#filter4_d_115_202)">
<rect x="2530.18" y="683.436" width="6.65766" height="26.0904" transform="rotate(-2.04313 2530.18 683.436)" fill="#936FDD"/>
<path d="M2513.11 709.405C2513.11 709.405 2519.84 702.37 2524.49 702.198C2529.15 702.026 2536.75 704.87 2536.75 704.87L2536.92 709.325L2513.08 710.207L2513.11 709.405Z" fill="#936FDD"/>
<rect x="2533.75" y="692.178" width="6.66832" height="26.1322" transform="rotate(-6.96502 2533.75 692.178)" fill="#AE8EED"/>
<path d="M2518.95 719.557C2518.95 719.557 2525.06 711.959 2529.69 711.387C2534.32 710.815 2542.16 713 2542.16 713L2542.7 717.431L2518.99 720.361L2518.95 719.557Z" fill="#AE8EED"/>
<g filter="url(#filter5_d_115_202)">
<mask id="mask2_115_202" style="mask-type:alpha" maskUnits="userSpaceOnUse" x="2443" y="625" width="82" height="51">
<path d="M2443.16 669.421C2443.16 669.421 2473.71 637.398 2485.5 629.681C2497.28 621.963 2513.09 625.259 2520.81 637.042C2528.52 648.825 2525.23 664.633 2513.44 672.351C2501.66 680.068 2443.16 669.421 2443.16 669.421Z" fill="#D9D9D9"/>
</mask>
<g mask="url(#mask2_115_202)">
<path d="M2443.16 669.421C2443.16 669.421 2473.71 637.398 2485.5 629.681C2497.28 621.963 2513.09 625.259 2520.81 637.042C2528.52 648.825 2525.23 664.633 2513.44 672.351C2501.66 680.068 2443.16 669.421 2443.16 669.421Z" fill="#99C2FF"/>
<path d="M2484.83 680.154L2455.35 703.407L2427.13 660.309L2468.76 633.041L2484.83 680.154Z" fill="#342F91"/>
</g>
</g>
<path d="M2483.86 611.113L2499.31 603.098L2501.22 609.783L2483.86 611.113Z" fill="#CCE0FF"/>
<mask id="mask3_115_202" style="mask-type:alpha" maskUnits="userSpaceOnUse" x="2547" y="674" width="71" height="28">
<path d="M2561.38 674.179L2617.08 685.902L2616.17 690.222L2547.45 701.459L2561.38 674.179Z" fill="#7B5252"/>
</mask>
<g mask="url(#mask3_115_202)">
<path d="M2561.38 674.179L2617.08 685.902L2616.17 690.222L2547.45 701.459L2561.38 674.179Z" fill="#99C2FF"/>
<rect x="2591.95" y="673.541" width="32.6902" height="25.1267" transform="rotate(11.8853 2591.95 673.541)" fill="#342F91"/>
</g>
<mask id="mask4_115_202" style="mask-type:alpha" maskUnits="userSpaceOnUse" x="2492" y="609" width="82" height="93">
<path d="M2496.81 611.569L2530.88 609.405L2545.56 647.314L2492.76 661.958L2496.81 611.569Z" fill="#99C2FF"/>
<path d="M2573.78 677.284C2573.1 699.256 2550.28 704.615 2530.23 700.395C2510.18 696.176 2489.34 677.021 2493.21 658.643C2497.07 640.265 2515.07 631.654 2535.12 635.873C2555.17 640.093 2556.6 658.184 2573.78 677.284Z" fill="#99C2FF"/>
</mask>
<g mask="url(#mask4_115_202)">
<path d="M2496.81 611.569L2530.88 609.405L2545.56 647.314L2492.76 661.958L2496.81 611.569Z" fill="#99C2FF"/>
<path d="M2573.78 677.284C2573.1 699.256 2550.28 704.615 2530.23 700.395C2510.18 696.176 2489.34 677.021 2493.21 658.643C2497.07 640.265 2515.07 631.654 2535.12 635.873C2555.17 640.093 2556.6 658.184 2573.78 677.284Z" fill="#99C2FF"/>
<rect x="2489.87" y="627.164" width="103.762" height="46.8107" transform="rotate(50.9692 2489.87 627.164)" fill="#C8DEFF"/>
</g>
<mask id="mask5_115_202" style="mask-type:alpha" maskUnits="userSpaceOnUse" x="2496" y="590" width="36" height="44">
<ellipse cx="17.8776" cy="20.8534" rx="17.8776" ry="20.8534" transform="matrix(0.912585 0.408887 -0.256443 0.966559 2502.94 584.551)" fill="#99C2FF"/>
</mask>
<g mask="url(#mask5_115_202)">
<ellipse cx="17.8776" cy="20.8534" rx="17.8776" ry="20.8534" transform="matrix(0.912585 0.408887 -0.256443 0.966559 2502.94 584.551)" fill="#99C2FF"/>
<path d="M2488.5 598.643L2510.66 614.993L2486.34 610.602L2488.5 598.643Z" fill="#5F5DC4"/>
</g>
<g filter="url(#filter6_d_115_202)">
<mask id="mask6_115_202" style="mask-type:alpha" maskUnits="userSpaceOnUse" x="2509" y="631" width="79" height="53">
<path d="M2587.85 683.669C2587.85 683.669 2543.6 684.623 2529.81 681.722C2516.03 678.821 2507.21 665.295 2510.11 651.512C2513.01 637.728 2526.53 628.906 2540.32 631.807C2554.1 634.708 2587.85 683.669 2587.85 683.669Z" fill="#D9D9D9"/>
</mask>
<g mask="url(#mask6_115_202)">
<path d="M2587.85 683.669C2587.85 683.669 2543.6 684.623 2529.81 681.722C2516.03 678.821 2507.21 665.295 2510.11 651.512C2513.01 637.728 2526.53 628.906 2540.32 631.807C2554.1 634.708 2587.85 683.669 2587.85 683.669Z" fill="#99C2FF"/>
<path d="M2566.04 646.573L2603.32 651.043L2592.71 701.457L2544.01 691.207L2566.04 646.573Z" fill="#342F91"/>
</g>
</g>
<mask id="mask7_115_202" style="mask-type:alpha" maskUnits="userSpaceOnUse" x="2504" y="596" width="13" height="13">
<circle cx="2510.34" cy="602.514" r="5.89202" transform="rotate(11.8853 2510.34 602.514)" fill="#614B4B"/>
</mask>
<g mask="url(#mask7_115_202)">
<circle cx="2510.34" cy="602.514" r="5.89202" transform="rotate(11.8853 2510.34 602.514)" fill="white"/>
<circle cx="2507.22" cy="603.67" r="4.11764" transform="rotate(11.8853 2507.22 603.67)" fill="black"/>
</g>
<path d="M2448.29 612.128C2448.29 612.128 2471.55 635.32 2482.44 653.06C2493.74 671.466 2490.87 682.545 2490.87 682.545L2447.76 715.322C2447.76 715.322 2446.65 699.788 2435.13 681.199C2424.22 663.578 2400.02 641.404 2400.02 641.404L2448.29 612.128Z" fill="#D9D9D9"/>
<path d="M2413.22 645.047L2434.33 631.318" stroke="black" stroke-width="1.3156" stroke-linecap="square"/>
<path d="M2426.39 659.145L2457 636.131" stroke="black" stroke-width="1.3156" stroke-linecap="square"/>
<path d="M2428.99 661.742L2459.6 638.729" stroke="black" stroke-width="1.3156" stroke-linecap="square"/>
<path d="M2435.77 666.52L2466.38 643.506" stroke="black" stroke-width="1.3156" stroke-linecap="square"/>
<path d="M2440.38 672.049L2470.99 649.035" stroke="black" stroke-width="1.3156" stroke-linecap="square"/>
<path d="M2444.91 677.494L2475.52 654.48" stroke="black" stroke-width="1.3156" stroke-linecap="square"/>
<path d="M2448.31 684.043L2478.93 661.029" stroke="black" stroke-width="1.3156" stroke-linecap="square"/>
<path d="M2451.08 691.486L2481.69 668.473" stroke="black" stroke-width="1.3156" stroke-linecap="square"/>
<path d="M2452.49 699.719L2483.1 676.705" stroke="black" stroke-width="1.3156" stroke-linecap="square"/>
<path d="M2451.54 695.91L2482.16 672.896" stroke="black" stroke-width="1.3156" stroke-linecap="square"/>
<path d="M2433.01 664.023L2463.62 641.01" stroke="black" stroke-width="1.3156" stroke-linecap="square"/>
<path d="M2438.76 669.076L2469.37 646.062" stroke="black" stroke-width="1.3156" stroke-linecap="square"/>
<path d="M2443.48 674.127L2474.1 651.113" stroke="black" stroke-width="1.3156" stroke-linecap="square"/>
<path d="M2446.6 680.582L2477.21 657.568" stroke="black" stroke-width="1.3156" stroke-linecap="square"/>
<path d="M2449.34 688.211L2479.96 665.197" stroke="black" stroke-width="1.3156" stroke-linecap="square"/>
<path d="M2443.83 623.08L2443.93 622.701C2444.12 622.432 2444.65 622.602 2445.51 623.211L2449.1 625.186L2449.19 625.179L2449.55 623.386C2449.67 623.203 2449.91 623.223 2450.26 623.444C2450.51 623.62 2450.46 624.336 2450.1 625.593L2450.1 625.661L2450.15 625.701C2450.36 625.843 2451.59 626.323 2453.86 627.139L2453.89 627.159C2454.07 627.288 2454.14 627.519 2454.09 627.853C2453.93 628.083 2453.49 628 2452.78 627.604C2452.17 627.448 2451.22 627.112 2449.93 626.596L2449.9 626.643C2449.43 627.864 2449.28 628.539 2449.46 628.667C2450.56 630.294 2451 631.253 2450.8 631.547C2450.68 631.713 2450.48 631.721 2450.2 631.57C2449.97 631.407 2449.67 630.879 2449.29 629.986L2448.92 629.44L2448.71 629.738L2448.61 630.004C2448.32 630.236 2448.03 630.254 2447.75 630.058C2447.5 629.703 2447.45 629.41 2447.62 629.18L2447.97 628.984C2448.28 628.54 2448.24 628.18 2447.85 627.902C2446.98 626.686 2445.64 625.079 2443.83 623.08ZM2446.53 624.82L2448.6 627.328C2448.9 626.569 2448.98 626.14 2448.84 626.038C2447.34 625.162 2446.58 624.756 2446.53 624.82Z" fill="#DE5555"/>
</g>
<path d="M2724.01 800.891L2742.18 821.853" stroke="#32888B" stroke-width="6.6" stroke-linecap="round"/>
<path d="M2745.2 788.854L2742.18 821.853" stroke="#32888B" stroke-width="6.6" stroke-linecap="round"/>
<path d="M2765.71 807.541L2742.18 821.853" stroke="#32888B" stroke-width="6.6" stroke-linecap="round"/>
<path d="M2307.21 864.768L2289.04 885.73" stroke="#32888B" stroke-width="6.6" stroke-linecap="round"/>
<path d="M2286.03 852.73L2289.04 885.73" stroke="#32888B" stroke-width="6.6" stroke-linecap="round"/>
<path d="M2265.52 871.42L2289.04 885.731" stroke="#32888B" stroke-width="6.6" stroke-linecap="round"/>
<mask id="mask8_115_202" style="mask-type:alpha" maskUnits="userSpaceOnUse" x="-8" y="884" width="1090" height="761">
<path d="M704.114 887.055L-7.43444 940.708L-7.4344 1644.74L963.241 1113.37L1081.58 884.427L704.114 887.055Z" fill="#D9D9D9"/>
</mask>
<g mask="url(#mask8_115_202)">
<path d="M74.4592 1002.99L889.381 419.103L1134.65 1003.33L434.259 1505.16L74.4592 1002.99Z" fill="#726AC9"/>
<path d="M543.589 666.861L622.879 610.051L957.043 1243.91L543.589 666.861Z" fill="#342F91"/>
<path d="M67.554 907.138L112.288 951.843L438.515 1508.77L112.288 1467.05L67.554 907.138Z" fill="#241F78"/>
<path d="M-34.8342 907.138L9.89953 951.843L122.353 1449.36L9.89954 1467.05L-34.8342 907.138Z" fill="#342EA7"/>
<path d="M-34.8341 907.139L9.89962 951.844L122.354 1449.36L74.3115 940.904L-34.8341 907.139Z" fill="#3E40B7"/>
<path d="M688.953 562.706L868.752 420.55L1102.41 1139.76L688.953 562.706Z" fill="#5F5DC4"/>
<path d="M141.226 998.481L321.024 856.325L613.465 1390.09L408.464 1568.12L141.226 998.481Z" fill="#342EA7"/>
<path d="M270.072 906.164L349.361 849.354L563.979 1148.89L270.072 906.164Z" fill="#8E86DE"/>
<path d="M660.162 689.998L739.451 633.188L1049.54 1065.98L1029.9 1096.72L660.162 689.998Z" fill="#8E86DE"/>
<path d="M400.132 782.979L549.902 675.67L919.169 1191.05L864.715 1215.07L400.132 782.979Z" fill="#5F5DC4"/>
<path d="M317.595 988.776L344.173 963.067L563.978 1148.89L855.723 1204.85L615.85 1405.05L317.595 988.776Z" fill="#5F5DC4"/>
<path d="M147.598 1013.05L76.2063 889.835L283.105 880.161L652.372 1395.54L621.044 1402.99L147.598 1013.05Z" fill="#3E40B7"/>
</g>
<path d="M-12.8637 715.601L-12.8634 1051.85L612.185 941.479L1087.7 884.359L789.03 771.804L247.53 715.604L-12.8637 715.601Z" fill="#5DAEC4"/>
<path d="M100.863 719.021C141.424 719.022 175.182 739.243 182.379 765.96C188.012 765.395 193.887 765.097 199.925 765.097C232.346 765.097 260.027 773.707 270.958 785.831L18.9849 785.831C18.29 782.83 17.9263 779.753 17.9263 776.616C17.9263 744.808 55.0586 719.022 100.863 719.021Z" fill="#32888B"/>
<path d="M63.3408 843.105L81.5109 864.068" stroke="#32888B" stroke-width="6.6" stroke-linecap="round"/>
<path d="M84.5293 831.07L81.5106 864.069" stroke="#32888B" stroke-width="6.6" stroke-linecap="round"/>
<path d="M105.032 849.758L81.5106 864.069" stroke="#32888B" stroke-width="6.6" stroke-linecap="round"/>
<path d="M453.119 917.904L471.289 938.867" stroke="#32888B" stroke-width="6.6" stroke-linecap="round"/>
<path d="M474.307 905.867L471.288 938.866" stroke="#32888B" stroke-width="6.6" stroke-linecap="round"/>
<path d="M494.81 924.555L471.288 938.866" stroke="#32888B" stroke-width="6.6" stroke-linecap="round"/>
<path d="M950.514 849.941L968.684 870.904" stroke="#32888B" stroke-width="6.6" stroke-linecap="round"/>
<path d="M971.702 837.904L968.683 870.903" stroke="#32888B" stroke-width="6.6" stroke-linecap="round"/>
<path d="M992.205 856.592L968.683 870.903" stroke="#32888B" stroke-width="6.6" stroke-linecap="round"/>
<path d="M494.627 792.473C540.432 792.473 577.563 818.259 577.563 850.067C577.563 853.204 577.201 856.282 576.506 859.282L412.749 859.282C412.054 856.282 411.691 853.204 411.691 850.067C411.691 818.259 448.823 792.473 494.627 792.473Z" fill="#32888B"/>
<path d="M178.114 848.541L356.868 848.541L404.536 889.122L311.187 887.189L289.339 933.567L239.685 902.649L158.252 887.189L178.114 848.541Z" fill="#32888B"/>
<path d="M195.568 270.105L321.574 270.105L309.323 569.83L321.574 866.007L195.568 866.007L213.069 475.833L195.568 270.105Z" fill="#342F91"/>
<path d="M295.554 797.754L377.151 858.317L400.327 881.758L279.571 858.317L295.554 797.754Z" fill="#342F91"/>
<path d="M249.525 795.363L289.697 891.404L288.256 924.546L222.903 820.411L249.525 795.363Z" fill="#342F91"/>
<path d="M201.482 815.609L155.551 870.8L147.927 896.236L204.748 862.269L201.482 815.609Z" fill="#342F91"/>
<path d="M485.631 274.651C551.455 325.66 593.294 396.359 542.285 462.183C491.276 528.006 396.564 540.016 330.74 489.007C264.916 437.998 252.907 343.286 303.916 277.462C354.925 211.638 419.808 223.641 485.631 274.651Z" fill="#4A9DB4"/>
<path d="M269.071 472.236L308.448 472.236L292.339 551.669L308.448 676.995L283.39 601.093L269.071 472.236Z" fill="#3E40B7"/>
<path d="M80.9497 94.5791C156.543 59.6448 238.567 55.0685 273.501 130.661C308.435 206.254 275.475 295.854 199.882 330.789C124.289 365.723 34.6889 332.763 -0.245399 257.17C-35.1797 181.577 5.35675 129.513 80.9497 94.5791Z" fill="#32869D"/>
<path d="M200.251 288.79C275.844 253.856 357.868 249.279 392.803 324.872C427.737 400.465 394.777 490.065 319.184 525C243.591 559.934 153.991 526.974 119.056 451.381C84.122 375.788 124.659 323.724 200.251 288.79Z" fill="#32869D"/>
<path d="M226.195 690.299L247.196 690.299L287.447 894.884L208.694 679.625L226.195 690.299Z" fill="#3E40B7"/>
<path d="M486.956 372.792C486.956 456.156 456.606 532.615 373.072 532.615C289.537 532.615 221.819 465.035 221.819 381.671C221.819 298.307 289.537 230.727 373.072 230.727C456.606 230.727 486.956 289.427 486.956 372.792Z" fill="#5DAEC4"/>
<path d="M342.574 165.411C342.574 248.775 312.224 325.234 228.69 325.234C145.155 325.234 77.4373 257.654 77.4373 174.29C77.4373 90.9257 145.155 23.3457 228.69 23.3457C312.224 23.3457 342.574 82.0466 342.574 165.411Z" fill="#4A9DB4"/>
<path d="M234.944 319.058C234.944 401.697 204.595 477.492 121.06 477.492C37.5257 477.492 -30.1924 410.499 -30.1924 327.86C-30.1924 245.221 37.5257 178.229 121.06 178.229C204.595 178.229 234.944 236.419 234.944 319.058Z" fill="#4A9DB4"/>
<path d="M351.746 140.55C427.339 105.615 509.362 101.039 544.297 176.632C579.231 252.225 546.271 341.825 470.678 376.759C395.085 411.694 305.485 378.733 270.55 303.141C235.616 227.548 276.153 175.484 351.746 140.55Z" fill="#32869D"/>
<path d="M484.331 223.163C484.331 306.527 453.981 382.986 370.446 382.986C286.912 382.986 219.194 315.406 219.194 232.042C219.194 148.678 286.912 81.0977 370.446 81.0977C453.981 81.0976 484.331 139.799 484.331 223.163Z" fill="#4A9DB4"/>
<path d="M516.817 196.651C565.864 263.95 586.397 343.493 519.099 392.541C451.8 441.588 357.483 426.792 308.436 359.493C259.389 292.195 274.185 197.878 341.484 148.831C408.782 99.7841 467.77 129.353 516.817 196.651Z" fill="#5DAEC4"/>
<path d="M335.098 238.428C400.922 289.437 442.76 360.136 391.751 425.96C340.742 491.784 246.03 503.793 180.207 452.784C114.383 401.775 102.373 307.063 153.382 241.239C204.392 175.416 269.274 187.419 335.098 238.428Z" fill="#4A9DB4"/>
<path d="M213.509 137.474C289.102 102.539 371.126 97.9631 406.06 173.556C440.995 249.149 408.034 338.749 332.441 373.683C256.849 408.618 167.248 375.657 132.314 300.064C97.3799 224.471 137.916 172.408 213.509 137.474Z" fill="#32869D"/>
<path d="M365.321 171.79C414.368 239.088 434.902 318.632 367.604 367.679C300.305 416.726 205.988 401.931 156.941 334.632C107.894 267.334 122.69 173.017 189.988 123.97C257.287 74.9228 316.274 104.491 365.321 171.79Z" fill="#5DAEC4"/>
<path d="M200.689 210.952C243.541 247.86 263.099 304.636 208.754 367.733C154.408 430.831 75.6142 452.061 32.7619 415.153C-10.0904 378.244 -0.773515 297.174 53.5718 234.076C107.917 170.979 157.836 174.043 200.689 210.952Z" fill="#32869D"/>
<path d="M250.093 190.487C292.945 227.395 312.503 284.171 258.158 347.268C203.813 410.366 125.018 431.596 82.1659 394.688C39.3136 357.78 48.6305 276.709 102.976 213.611C157.321 150.514 207.24 153.578 250.093 190.487Z" fill="#4A9DB4"/>
<path d="M224.227 174.729C260.467 224.455 227.682 292.183 177.956 328.424C128.23 364.664 58.5412 353.731 22.301 304.005C-13.9392 254.28 -3.00681 184.59 46.7191 148.35C96.445 112.11 187.987 125.003 224.227 174.729Z" fill="#5DAEC4"/>
<path d="M245.785 432.046C223.087 499.18 153.263 536.215 89.8293 514.768C26.3958 493.32 8.31075 466.4 31.0094 399.267C53.7081 332.133 108.595 250.208 172.029 271.656C235.462 293.104 268.484 364.913 245.785 432.046Z" fill="#5DAEC4"/>
<path d="M308.448 545.201L378.047 532.359L405.658 528.148L308.448 582.493L308.448 545.201Z" fill="#342F91"/>
<g filter="url(#filter7_d_115_202)">
<mask id="mask9_115_202" style="mask-type:alpha" maskUnits="userSpaceOnUse" x="634" y="550" width="155" height="105">
<path d="M662.254 556.991L788.317 550.157L772.197 654.278L634.128 652.224L662.254 556.991Z" fill="#66A3FF"/>
</mask>
<g mask="url(#mask9_115_202)">
<path d="M661.061 562.813L828.627 548.837L838.766 677.012L627.042 668.051L661.061 562.813Z" fill="#66A3FF"/>
<path d="M638.077 526.791L798.806 521.533L796.501 617.877L640.68 606.356L638.077 526.791Z" fill="#3385FF"/>
</g>
<path d="M740.922 500.562C772.714 506.753 793.684 536.436 787.759 566.86C787.113 570.178 786.173 573.368 784.971 576.41L671.629 554.338C671.657 551.067 671.982 547.758 672.629 544.44C678.553 514.015 709.129 494.371 740.922 500.562Z" fill="#66A3FF"/>
<rect x="663.353" y="627.867" width="109.527" height="15.4378" rx="7.71892" transform="rotate(-1.87379 663.353 627.867)" fill="#5DAEC4"/>
<rect x="689.563" y="609.223" width="54.752" height="41.8984" transform="rotate(-1.87379 689.563 609.223)" fill="#554F97"/>
<mask id="mask10_115_202" style="mask-type:alpha" maskUnits="userSpaceOnUse" x="666" y="512" width="116" height="115">
<circle cx="724.3" cy="569.489" r="57.4115" transform="rotate(12.3758 724.3 569.489)" fill="#726AC9"/>
</mask>
<g mask="url(#mask10_115_202)">
<g filter="url(#filter8_i_115_202)">
<circle cx="724.3" cy="569.489" r="57.4115" transform="rotate(12.3758 724.3 569.489)" fill="#726AC9"/>
</g>
<rect x="680.11" y="496.621" width="117.789" height="72.8431" transform="rotate(11.303 680.11 496.621)" fill="#554F97"/>
</g>
<path d="M689.161 628.31L728.605 647.717L745.222 636.037L759.847 823.208C759.847 823.208 733.234 836.447 719.655 836.499C706.868 836.547 676.351 821.625 676.351 821.625L689.161 628.31Z" fill="#D9D9D9"/>
<path d="M715.3 636.757L687.96 627.249L653.298 652.133L634.443 806.053L703.281 841.266L715.3 636.757Z" fill="#5DAEC4"/>
<mask id="mask11_115_202" style="mask-type:alpha" maskUnits="userSpaceOnUse" x="752" y="628" width="68" height="111">
<path d="M808.142 651.571C806.716 645.501 802.665 640.378 797.088 637.591L783.355 630.727C766.966 622.536 748.68 637.795 753.805 655.386L774.1 725.049C776.141 732.055 782.13 737.193 789.365 738.145C796.474 739.081 803.48 735.801 807.315 729.742L816.599 715.071C819.614 710.306 820.587 704.528 819.296 699.038L808.142 651.571Z" fill="#5DAEC4"/>
</mask>
<g mask="url(#mask11_115_202)">
<g filter="url(#filter9_dd_115_202)">
<path d="M808.142 651.571C806.716 645.501 802.665 640.378 797.088 637.591L783.355 630.727C766.966 622.536 748.68 637.795 753.805 655.386L774.1 725.049C776.141 732.055 782.13 737.193 789.365 738.145C796.474 739.081 803.48 735.801 807.315 729.742L816.599 715.071C819.614 710.306 820.587 704.528 819.296 699.038L808.142 651.571Z" fill="#5DAEC4"/>
</g>
<path d="M745.612 644.388L770.604 638.787L802.469 722.178L748.215 723.953L745.612 644.388Z" fill="#32888B"/>
</g>
<mask id="mask12_115_202" style="mask-type:alpha" maskUnits="userSpaceOnUse" x="598" y="623" width="84" height="140">
<path d="M681.611 654.372L662.213 641.831C663.723 645.066 664.432 648.774 664.044 652.738L655.142 743.611C654.142 753.819 645.73 761.702 635.48 762.038C625.482 762.365 616.718 755.405 614.773 745.593L598.729 664.677C596.784 654.864 602.03 645.042 611.266 641.201L635.082 631.299C638.534 629.864 642.053 629.419 645.396 629.782L642.645 627.807L681.404 623.958L681.611 654.372Z" fill="#5DAEC4"/>
</mask>
<g mask="url(#mask12_115_202)">
<g filter="url(#filter10_d_115_202)">
<path d="M681.611 654.372L662.213 641.831C663.723 645.066 664.432 648.774 664.044 652.738L655.142 743.611C654.142 753.819 645.73 761.702 635.48 762.038C625.482 762.365 616.718 755.405 614.773 745.593L598.729 664.677C596.784 654.864 602.03 645.042 611.266 641.201L635.082 631.299C638.534 629.864 642.053 629.419 645.396 629.782L642.645 627.807L681.404 623.958L681.611 654.372Z" fill="#5DAEC4"/>
</g>
<path d="M642.519 652.684L724.687 729.645L645.122 732.248L642.519 652.684Z" fill="#32888B"/>
</g>
<path d="M719.042 599.539L745.142 604.071" stroke="black" stroke-width="3"/>
<g filter="url(#filter11_d_115_202)">
<path d="M673.563 626.426C673.563 626.426 681.446 626.397 687.907 631.095C694.416 635.828 703.367 641.372 703.367 641.372C703.367 641.372 674.846 729.444 671.66 734.983C668.473 740.522 643.091 766.549 630.63 760.908C618.168 755.267 616.524 720.325 618.493 714.563C620.462 708.802 673.563 626.426 673.563 626.426Z" fill="#D9D9D9"/>
</g>
<path d="M737.999 636.543L745.114 625.255L769.543 624.879L800.72 794.588L754.516 839.553L737.999 636.543Z" fill="#5DAEC4"/>
<path d="M782.749 652.088L811.928 658.532L813.614 659.905L782.566 653.626L782.749 652.088Z" fill="white"/>
<path d="M784.229 653.343L813.629 659.907L799.005 707.918L771.428 710.907L784.229 653.343Z" fill="#7FB2FF"/>
<rect width="5.96062" height="58.9467" transform="matrix(0.92122 0.389042 -0.284459 0.958688 782.74 652.086)" fill="#C3DBFF"/>
<g filter="url(#filter12_i_115_202)">
<path d="M788.529 661.008C789.054 659.157 790.773 658.08 792.624 658.443L796.559 659.215C798.958 659.685 800.555 662.33 799.894 664.736L798.406 670.153C797.917 671.934 796.318 673.022 794.536 672.787L790.487 672.254C787.97 671.923 786.218 669.17 786.928 666.664L788.529 661.008Z" fill="#C3DBFF"/>
</g>
<ellipse cx="2.02302" cy="2.70609" rx="2.02302" ry="2.70609" transform="matrix(0.977153 0.212536 -0.155205 0.987882 794.126 666.039)" fill="#001433"/>
<ellipse cx="2.00634" cy="2.70609" rx="2.00634" ry="2.70609" transform="matrix(0.977153 0.212536 -0.155205 0.987882 789.551 665.043)" fill="#001433"/>
<ellipse cx="2.093" cy="2.70609" rx="2.093" ry="2.70609" transform="matrix(0.977153 0.212536 -0.155205 0.987882 792.853 660.232)" fill="#001433"/>
<path d="M782.772 700.234L806.446 699.083L805.447 696.679C805.447 696.679 817.003 700.505 819.176 709.993C821.348 719.482 812.023 739.384 797.892 740.859C783.76 742.334 770.939 733.166 770.939 733.166L782.772 700.234Z" fill="#D9D9D9"/>
<path d="M807.151 680.494L809.965 692.36L808.056 700.217L800.268 704.195L807.151 680.494Z" fill="#726AC9"/>
<path d="M780.418 693.413L807.966 697.806L809.52 714.675L797.055 728.873L767.152 735.439L780.418 693.413Z" fill="#726AC9"/>
<path d="M770.211 691.217L780.478 693.421L767.214 735.447L757.578 732.498L770.211 691.217Z" fill="#8E86DE"/>
<path d="M709.464 502.529C724.806 497.722 737.235 498.712 752.01 503.484C753.299 503.9 754.423 504.4 755.404 504.962C758.176 506.314 765.847 510.36 772.495 516.713C779.28 523.198 785.848 533.831 786.822 540.395C790.249 563.499 786.287 584.639 786.275 584.701L747.136 572.758L749.3 552.223L742.044 571.37L661.099 558.96C661.122 558.902 669.233 538.538 678.301 526.428C687.382 514.301 697.037 506.424 709.464 502.529Z" fill="#66A3FF"/>
<g filter="url(#filter13_d_115_202)">
<path d="M681.895 594.454L684.115 616.54L737.436 619.321L736.904 624.783L713.006 627.577L713.757 650.512L680.281 651.607L671.61 624.937L671.451 624.864L673.784 594.164L681.895 594.454Z" fill="#8E86DE"/>
</g>
<path d="M810.254 817.624C810.254 817.624 815.631 835.251 814.29 849.296C813.136 861.387 805.31 874.393 805.31 874.393C805.31 874.393 647.559 855.798 639.252 853.111C630.945 850.424 588.941 822.473 592.91 802.084C596.879 781.695 643.064 766.626 651.32 767.44C659.576 768.253 810.254 817.624 810.254 817.624Z" fill="#342D83"/>
<path d="M850.31 887.434C832.09 887.881 816.959 873.472 816.513 855.252L816.201 842.535C815.755 824.315 830.164 809.183 848.383 808.737L852.365 808.639L854.292 887.337L850.31 887.434Z" fill="#66A3FF"/>
<path d="M845.749 889.1C845.749 889.1 848.45 863.596 847.986 847.215C847.544 831.599 843.75 807.46 843.75 807.46L857.052 807.134C857.052 807.134 861.516 831.229 861.971 846.872C862.449 863.28 859.051 888.774 859.051 888.774L845.749 889.1Z" fill="#D9D9D9"/>
<path d="M804.605 876.898L808.98 849.473L803.252 821.666L836.207 816.642L837.248 880.338L804.605 876.898Z" fill="#66A3FF"/>
<path d="M808.423 865.678C801.604 867.339 794.994 862.276 794.822 855.26L794.507 842.384C794.334 835.327 800.759 829.936 807.679 831.332L809.288 831.656C814.322 832.672 817.983 837.036 818.109 842.17L818.407 854.333C818.533 859.505 815.04 864.065 810.014 865.29L808.423 865.678Z" fill="#66A3FF"/>
<path d="M808.19 858.298L807.717 838.978L824.53 838.007L833.396 833.994L834.082 862.011L825.038 858.728L808.19 858.298Z" fill="#266589"/>
<circle cx="811.5" cy="835.593" r="3.04013" transform="rotate(-91.4026 811.5 835.593)" fill="#B4B4B4"/>
<circle cx="812.141" cy="861.755" r="3.04013" transform="rotate(-91.4026 812.141 861.755)" fill="#B4B4B4"/>
<circle cx="818.795" cy="861.593" r="3.04013" transform="rotate(-91.4026 818.795 861.593)" fill="#B4B4B4"/>
<ellipse cx="825.758" cy="862.913" rx="3.04013" ry="2.28263" transform="rotate(-91.4026 825.758 862.913)" fill="#B4B4B4"/>
<ellipse cx="825.047" cy="833.895" rx="3.04013" ry="2.28263" transform="rotate(-91.4026 825.047 833.895)" fill="#B4B4B4"/>
<ellipse cx="830.452" cy="831.606" rx="3.04013" ry="2.28263" transform="rotate(-91.4026 830.452 831.606)" fill="#B4B4B4"/>
<ellipse cx="831.253" cy="864.327" rx="3.04013" ry="2.28263" transform="rotate(-91.4026 831.253 864.327)" fill="#B4B4B4"/>
<circle cx="818.155" cy="835.431" r="3.04013" transform="rotate(-91.4026 818.155 835.431)" fill="#B4B4B4"/>
<path d="M812.084 859.441L811.55 837.64" stroke="#D9D9D9" stroke-width="5" stroke-linecap="square"/>
<path d="M818.528 859.283L817.995 837.482" stroke="#D9D9D9" stroke-width="5" stroke-linecap="square"/>
<path d="M825.44 861.025L824.82 835.709" stroke="#D9D9D9" stroke-width="3" stroke-linecap="square"/>
<path d="M830.978 862.09L830.299 834.366" stroke="#D9D9D9" stroke-width="3" stroke-linecap="square"/>
<path d="M716.16 863.396L859.632 823.255L861.602 839.32L734.021 865.942L716.16 863.396Z" fill="black" fill-opacity="0.44"/>
<path d="M647.363 826.138L727.349 790.966L792.115 798.954L664.535 825.576L647.363 826.138Z" fill="black" fill-opacity="0.44"/>
<path d="M660.994 877.047C660.994 877.047 660.183 860.305 658.461 848.396C656.726 836.397 659.309 825.541 659.309 825.541C659.309 825.541 805.182 759.25 813.466 757.633C821.75 756.015 870.611 760.383 877.168 780.091C883.726 799.798 852.227 835.009 844.894 838.239C837.562 841.47 660.994 877.047 660.994 877.047Z" fill="#342D83"/>
<path d="M614.009 814.875C632.214 814.023 647.664 828.09 648.516 846.296L649.111 859.003C649.963 877.209 635.895 892.658 617.69 893.51L613.711 893.697L610.03 815.061L614.009 814.875Z" fill="#66A3FF"/>
<path d="M618.532 813.109C618.532 813.109 616.4 838.666 617.229 855.034C618.019 870.635 622.351 894.684 622.351 894.684L609.06 895.306C609.06 895.306 604.059 871.317 603.255 855.688C602.412 839.295 605.241 813.732 605.241 813.732L618.532 813.109Z" fill="#D9D9D9"/>
<path d="M659.938 824.392L656.175 851.907L662.521 879.58L629.687 885.337L627.226 821.68L659.938 824.392Z" fill="#66A3FF"/>
<path d="M656.37 835.694C663.151 833.88 669.872 838.795 670.2 845.806L670.802 858.671C671.132 865.723 664.829 871.256 657.88 870.014L656.265 869.726C651.209 868.822 647.451 864.541 647.211 859.411L646.642 847.258C646.4 842.09 649.791 837.453 654.788 836.117L656.37 835.694Z" fill="#66A3FF"/>
<path d="M656.768 843.066L657.672 862.37L640.884 863.716L632.11 867.926L630.799 839.931L639.915 843.011L656.768 843.066Z" fill="#266589"/>
<circle cx="653.966" cy="865.841" r="3.04013" transform="rotate(87.3198 653.966 865.841)" fill="#B4B4B4"/>
<circle cx="652.742" cy="839.698" r="3.04013" transform="rotate(87.3198 652.742 839.698)" fill="#B4B4B4"/>
<circle cx="646.093" cy="840.011" r="3.04013" transform="rotate(87.3198 646.093 840.011)" fill="#B4B4B4"/>
<ellipse cx="639.102" cy="838.845" rx="3.04013" ry="2.28263" transform="rotate(87.3198 639.102 838.845)" fill="#B4B4B4"/>
<ellipse cx="640.46" cy="867.841" rx="3.04013" ry="2.28263" transform="rotate(87.3198 640.46 867.841)" fill="#B4B4B4"/>
<ellipse cx="635.107" cy="870.251" rx="3.04013" ry="2.28263" transform="rotate(87.3198 635.107 870.251)" fill="#B4B4B4"/>
<ellipse cx="633.576" cy="837.554" rx="3.04013" ry="2.28263" transform="rotate(87.3198 633.576 837.554)" fill="#B4B4B4"/>
<circle cx="647.316" cy="866.152" r="3.04013" transform="rotate(87.3198 647.316 866.152)" fill="#B4B4B4"/>
<path d="M652.851 842.01L653.87 863.794" stroke="#D9D9D9" stroke-width="5" stroke-linecap="square"/>
<path d="M646.411 842.314L647.431 864.098" stroke="#D9D9D9" stroke-width="5" stroke-linecap="square"/>
<path d="M639.462 840.723L640.646 866.019" stroke="#D9D9D9" stroke-width="3" stroke-linecap="square"/>
<path d="M633.902 839.785L635.199 867.487" stroke="#D9D9D9" stroke-width="3" stroke-linecap="square"/>
<path d="M781.862 529.257C781.862 529.257 786.491 536.353 787.926 541.487C789.75 548.015 788.493 558.835 788.493 558.835C788.493 558.835 788.114 573.503 786.88 582.803C783.821 605.863 769.684 639.834 769.684 639.834L781.862 529.257Z" fill="#66A3FF"/>
<path d="M666.417 546.884C670.385 538.811 676.734 528.383 676.734 528.383L669.473 626.749C669.473 626.749 651.612 583.607 661.216 558.563C662.742 554.584 664.537 550.708 666.417 546.884Z" fill="#66A3FF"/>
</g>
</g>
<defs>
<filter id="filter0_d_115_202" x="2326.06" y="704.721" width="285.305" height="189.607" filterUnits="userSpaceOnUse" color-interpolation-filters="sRGB">
<feFlood flood-opacity="0" result="BackgroundImageFix"/>
<feColorMatrix in="SourceAlpha" type="matrix" values="0 0 0 0 0 0 0 0 0 0 0 0 0 0 0 0 0 0 127 0" result="hardAlpha"/>
<feOffset dx="9" dy="14"/>
<feGaussianBlur stdDeviation="2"/>
<feComposite in2="hardAlpha" operator="out"/>
<feColorMatrix type="matrix" values="0 0 0 0 0 0 0 0 0 0 0 0 0 0 0 0 0 0 0.25 0"/>
<feBlend mode="normal" in2="BackgroundImageFix" result="effect1_dropShadow_115_202"/>
<feBlend mode="normal" in="SourceGraphic" in2="effect1_dropShadow_115_202" result="shape"/>
</filter>
<filter id="filter1_i_115_202" x="2326.26" y="752.73" width="164.524" height="114.957" filterUnits="userSpaceOnUse" color-interpolation-filters="sRGB">
<feFlood flood-opacity="0" result="BackgroundImageFix"/>
<feBlend mode="normal" in="SourceGraphic" in2="BackgroundImageFix" result="shape"/>
<feColorMatrix in="SourceAlpha" type="matrix" values="0 0 0 0 0 0 0 0 0 0 0 0 0 0 0 0 0 0 127 0" result="hardAlpha"/>
<feOffset dx="-19" dy="-7"/>
<feComposite in2="hardAlpha" operator="arithmetic" k2="-1" k3="1"/>
<feColorMatrix type="matrix" values="0 0 0 0 0 0 0 0 0 0 0 0 0 0 0 0 0 0 0.25 0"/>
<feBlend mode="normal" in2="shape" result="effect1_innerShadow_115_202"/>
</filter>
<filter id="filter2_i_115_202" x="2368.14" y="749.822" width="161.526" height="93.291" filterUnits="userSpaceOnUse" color-interpolation-filters="sRGB">
<feFlood flood-opacity="0" result="BackgroundImageFix"/>
<feBlend mode="normal" in="SourceGraphic" in2="BackgroundImageFix" result="shape"/>
<feColorMatrix in="SourceAlpha" type="matrix" values="0 0 0 0 0 0 0 0 0 0 0 0 0 0 0 0 0 0 127 0" result="hardAlpha"/>
<feOffset dx="-12" dy="-18"/>
<feComposite in2="hardAlpha" operator="arithmetic" k2="-1" k3="1"/>
<feColorMatrix type="matrix" values="0 0 0 0 0 0 0 0 0 0 0 0 0 0 0 0 0 0 0.25 0"/>
<feBlend mode="normal" in2="shape" result="effect1_innerShadow_115_202"/>
</filter>
<filter id="filter3_i_115_202" x="2393.12" y="720.754" width="123.664" height="113.16" filterUnits="userSpaceOnUse" color-interpolation-filters="sRGB">
<feFlood flood-opacity="0" result="BackgroundImageFix"/>
<feBlend mode="normal" in="SourceGraphic" in2="BackgroundImageFix" result="shape"/>
<feColorMatrix in="SourceAlpha" type="matrix" values="0 0 0 0 0 0 0 0 0 0 0 0 0 0 0 0 0 0 127 0" result="hardAlpha"/>
<feOffset dy="-13"/>
<feComposite in2="hardAlpha" operator="arithmetic" k2="-1" k3="1"/>
<feColorMatrix type="matrix" values="0 0 0 0 0.203922 0 0 0 0 0.184314 0 0 0 0 0.568627 0 0 0 1 0"/>
<feBlend mode="normal" in2="shape" result="effect1_innerShadow_115_202"/>
</filter>
<filter id="filter4_d_115_202" x="2400.02" y="590.57" width="234.066" height="137.791" filterUnits="userSpaceOnUse" color-interpolation-filters="sRGB">
<feFlood flood-opacity="0" result="BackgroundImageFix"/>
<feColorMatrix in="SourceAlpha" type="matrix" values="0 0 0 0 0 0 0 0 0 0 0 0 0 0 0 0 0 0 127 0" result="hardAlpha"/>
<feOffset dx="13" dy="4"/>
<feGaussianBlur stdDeviation="2"/>
<feComposite in2="hardAlpha" operator="out"/>
<feColorMatrix type="matrix" values="0 0 0 0 0 0 0 0 0 0 0 0 0 0 0 0 0 0 0.25 0"/>
<feBlend mode="normal" in2="BackgroundImageFix" result="effect1_dropShadow_115_202"/>
<feBlend mode="normal" in="SourceGraphic" in2="effect1_dropShadow_115_202" result="shape"/>
</filter>
<filter id="filter5_d_115_202" x="2435.78" y="625.51" width="96.5752" height="64.4033" filterUnits="userSpaceOnUse" color-interpolation-filters="sRGB">
<feFlood flood-opacity="0" result="BackgroundImageFix"/>
<feColorMatrix in="SourceAlpha" type="matrix" values="0 0 0 0 0 0 0 0 0 0 0 0 0 0 0 0 0 0 127 0" result="hardAlpha"/>
<feOffset dy="7.3784"/>
<feGaussianBlur stdDeviation="3.6892"/>
<feComposite in2="hardAlpha" operator="out"/>
<feColorMatrix type="matrix" values="0 0 0 0 0 0 0 0 0 0 0 0 0 0 0 0 0 0 0.25 0"/>
<feBlend mode="normal" in2="BackgroundImageFix" result="effect1_dropShadow_115_202"/>
<feBlend mode="normal" in="SourceGraphic" in2="effect1_dropShadow_115_202" result="shape"/>
</filter>
<filter id="filter6_d_115_202" x="2502.18" y="631.256" width="93.0473" height="67.3193" filterUnits="userSpaceOnUse" color-interpolation-filters="sRGB">
<feFlood flood-opacity="0" result="BackgroundImageFix"/>
<feColorMatrix in="SourceAlpha" type="matrix" values="0 0 0 0 0 0 0 0 0 0 0 0 0 0 0 0 0 0 127 0" result="hardAlpha"/>
<feOffset dy="7.3784"/>
<feGaussianBlur stdDeviation="3.6892"/>
<feComposite in2="hardAlpha" operator="out"/>
<feColorMatrix type="matrix" values="0 0 0 0 0 0 0 0 0 0 0 0 0 0 0 0 0 0 0.25 0"/>
<feBlend mode="normal" in2="BackgroundImageFix" result="effect1_dropShadow_115_202"/>
<feBlend mode="normal" in="SourceGraphic" in2="effect1_dropShadow_115_202" result="shape"/>
</filter>
<filter id="filter7_d_115_202" x="592.646" y="499.377" width="298.414" height="418.93" filterUnits="userSpaceOnUse" color-interpolation-filters="sRGB">
<feFlood flood-opacity="0" result="BackgroundImageFix"/>
<feColorMatrix in="SourceAlpha" type="matrix" values="0 0 0 0 0 0 0 0 0 0 0 0 0 0 0 0 0 0 127 0" result="hardAlpha"/>
<feOffset dx="9" dy="19"/>
<feGaussianBlur stdDeviation="2"/>
<feComposite in2="hardAlpha" operator="out"/>
<feColorMatrix type="matrix" values="0 0 0 0 0 0 0 0 0 0 0 0 0 0 0 0 0 0 0.25 0"/>
<feBlend mode="normal" in2="BackgroundImageFix" result="effect1_dropShadow_115_202"/>
<feBlend mode="normal" in="SourceGraphic" in2="effect1_dropShadow_115_202" result="shape"/>
</filter>
<filter id="filter8_i_115_202" x="666.876" y="512.066" width="114.847" height="114.846" filterUnits="userSpaceOnUse" color-interpolation-filters="sRGB">
<feFlood flood-opacity="0" result="BackgroundImageFix"/>
<feBlend mode="normal" in="SourceGraphic" in2="BackgroundImageFix" result="shape"/>
<feColorMatrix in="SourceAlpha" type="matrix" values="0 0 0 0 0 0 0 0 0 0 0 0 0 0 0 0 0 0 127 0" result="hardAlpha"/>
<feOffset dx="13" dy="-4"/>
<feComposite in2="hardAlpha" operator="arithmetic" k2="-1" k3="1"/>
<feColorMatrix type="matrix" values="0 0 0 0 0 0 0 0 0 0 0 0 0 0 0 0 0 0 0.25 0"/>
<feBlend mode="normal" in2="shape" result="effect1_innerShadow_115_202"/>
</filter>
<filter id="filter9_dd_115_202" x="748.927" y="628.453" width="76.9263" height="117.85" filterUnits="userSpaceOnUse" color-interpolation-filters="sRGB">
<feFlood flood-opacity="0" result="BackgroundImageFix"/>
<feColorMatrix in="SourceAlpha" type="matrix" values="0 0 0 0 0 0 0 0 0 0 0 0 0 0 0 0 0 0 127 0" result="hardAlpha"/>
<feOffset dx="2" dy="4"/>
<feGaussianBlur stdDeviation="2"/>
<feComposite in2="hardAlpha" operator="out"/>
<feColorMatrix type="matrix" values="0 0 0 0 0 0 0 0 0 0 0 0 0 0 0 0 0 0 0.25 0"/>
<feBlend mode="normal" in2="BackgroundImageFix" result="effect1_dropShadow_115_202"/>
<feColorMatrix in="SourceAlpha" type="matrix" values="0 0 0 0 0 0 0 0 0 0 0 0 0 0 0 0 0 0 127 0" result="hardAlpha"/>
<feOffset dy="4"/>
<feGaussianBlur stdDeviation="2"/>
<feComposite in2="hardAlpha" operator="out"/>
<feColorMatrix type="matrix" values="0 0 0 0 0 0 0 0 0 0 0 0 0 0 0 0 0 0 0.25 0"/>
<feBlend mode="normal" in2="effect1_dropShadow_115_202" result="effect2_dropShadow_115_202"/>
<feBlend mode="normal" in="SourceGraphic" in2="effect2_dropShadow_115_202" result="shape"/>
</filter>
<filter id="filter10_d_115_202" x="596.327" y="623.959" width="91.2842" height="146.09" filterUnits="userSpaceOnUse" color-interpolation-filters="sRGB">
<feFlood flood-opacity="0" result="BackgroundImageFix"/>
<feColorMatrix in="SourceAlpha" type="matrix" values="0 0 0 0 0 0 0 0 0 0 0 0 0 0 0 0 0 0 127 0" result="hardAlpha"/>
<feOffset dx="2" dy="4"/>
<feGaussianBlur stdDeviation="2"/>
<feComposite in2="hardAlpha" operator="out"/>
<feColorMatrix type="matrix" values="0 0 0 0 0 0 0 0 0 0 0 0 0 0 0 0 0 0 0.25 0"/>
<feBlend mode="normal" in2="BackgroundImageFix" result="effect1_dropShadow_115_202"/>
<feBlend mode="normal" in="SourceGraphic" in2="effect1_dropShadow_115_202" result="shape"/>
</filter>
<filter id="filter11_d_115_202" x="613.795" y="626.426" width="93.5718" height="143.277" filterUnits="userSpaceOnUse" color-interpolation-filters="sRGB">
<feFlood flood-opacity="0" result="BackgroundImageFix"/>
<feColorMatrix in="SourceAlpha" type="matrix" values="0 0 0 0 0 0 0 0 0 0 0 0 0 0 0 0 0 0 127 0" result="hardAlpha"/>
<feOffset dy="4"/>
<feGaussianBlur stdDeviation="2"/>
<feComposite in2="hardAlpha" operator="out"/>
<feColorMatrix type="matrix" values="0 0 0 0 0 0 0 0 0 0 0 0 0 0 0 0 0 0 0.25 0"/>
<feBlend mode="normal" in2="BackgroundImageFix" result="effect1_dropShadow_115_202"/>
<feBlend mode="normal" in="SourceGraphic" in2="effect1_dropShadow_115_202" result="shape"/>
</filter>
<filter id="filter12_i_115_202" x="786.769" y="658.373" width="13.2759" height="14.4453" filterUnits="userSpaceOnUse" color-interpolation-filters="sRGB">
<feFlood flood-opacity="0" result="BackgroundImageFix"/>
<feBlend mode="normal" in="SourceGraphic" in2="BackgroundImageFix" result="shape"/>
<feColorMatrix in="SourceAlpha" type="matrix" values="0 0 0 0 0 0 0 0 0 0 0 0 0 0 0 0 0 0 127 0" result="hardAlpha"/>
<feOffset dx="1" dy="1"/>
<feComposite in2="hardAlpha" operator="arithmetic" k2="-1" k3="1"/>
<feColorMatrix type="matrix" values="0 0 0 0 0.2 0 0 0 0 0.521569 0 0 0 0 1 0 0 0 1 0"/>
<feBlend mode="normal" in2="shape" result="effect1_innerShadow_115_202"/>
</filter>
<filter id="filter13_d_115_202" x="671.451" y="585.164" width="73.9849" height="66.4434" filterUnits="userSpaceOnUse" color-interpolation-filters="sRGB">
<feFlood flood-opacity="0" result="BackgroundImageFix"/>
<feColorMatrix in="SourceAlpha" type="matrix" values="0 0 0 0 0 0 0 0 0 0 0 0 0 0 0 0 0 0 127 0" result="hardAlpha"/>
<feOffset dx="4" dy="-5"/>
<feGaussianBlur stdDeviation="2"/>
<feComposite in2="hardAlpha" operator="out"/>
<feColorMatrix type="matrix" values="0 0 0 0 0 0 0 0 0 0 0 0 0 0 0 0 0 0 0.25 0"/>
<feBlend mode="normal" in2="BackgroundImageFix" result="effect1_dropShadow_115_202"/>
<feBlend mode="normal" in="SourceGraphic" in2="effect1_dropShadow_115_202" result="shape"/>
</filter>
<linearGradient id="paint0_linear_115_202" x1="1696.36" y1="444.531" x2="1706.97" y2="1752.35" gradientUnits="userSpaceOnUse">
<stop stop-color="#002966"/>
<stop offset="0.653463" stop-color="#0047B1"/>
<stop offset="1" stop-color="#0052CC"/>
</linearGradient>
<clipPath id="clip0_115_202">
<rect width="2884" height="1416" fill="white" transform="translate(0 0.0488281)"/>
</clipPath>
</defs>
</svg>
