<svg width="1920" height="1080" viewBox="0 0 1920 1080" fill="none" xmlns="http://www.w3.org/2000/svg">
<g clip-path="url(#clip0_1797_2395)">
<rect width="1920" height="1080" fill="url(#paint0_linear_1797_2395)"/>
<g opacity="0.34">
<circle cx="7.50851" cy="7.50851" r="7.50851" transform="matrix(-1 0 0 1 562.119 98.293)" fill="#D9D9D9"/>
<circle cx="7.50851" cy="7.50851" r="7.50851" transform="matrix(-1 0 0 1 779.104 135.904)" fill="#D9D9D9"/>
<circle cx="7.50851" cy="7.50851" r="7.50851" transform="matrix(-1 0 0 1 1450.9 90.7832)" fill="#D9D9D9"/>
<circle cx="7.50851" cy="7.50851" r="7.50851" transform="matrix(-1 0 0 1 123.711 120.887)" fill="#D9D9D9"/>
<circle cx="7.50851" cy="7.50851" r="7.50851" transform="matrix(-1 0 0 1 1875.95 175.922)" fill="#D9D9D9"/>
<circle cx="7.50851" cy="7.50851" r="7.50851" transform="matrix(-1 0 0 1 1287.33 224.842)" fill="#D9D9D9"/>
<circle cx="7.50851" cy="7.50851" r="7.50851" transform="matrix(-1 0 0 1 712.343 443.207)" fill="#D9D9D9"/>
<circle cx="7.50851" cy="7.50851" r="7.50851" transform="matrix(-1 0 0 1 1057.68 323.596)" fill="#D9D9D9"/>
<circle cx="7.50851" cy="7.50851" r="7.50851" transform="matrix(-1 0 0 1 933.655 428.189)" fill="#D9D9D9"/>
<circle cx="7.50851" cy="7.50851" r="7.50851" transform="matrix(-1 0 0 1 1450.9 372.645)" fill="#D9D9D9"/>
<circle cx="7.50851" cy="7.50851" r="7.50851" transform="matrix(-1 0 0 1 1875.95 487.512)" fill="#D9D9D9"/>
<circle cx="3.90932" cy="3.90932" r="3.90932" transform="matrix(-1 0 0 1 734.405 251.479)" fill="#D9D9D9"/>
<circle cx="3.90932" cy="3.90932" r="3.90932" transform="matrix(-1 0 0 1 400.542 94.3828)" fill="#D9D9D9"/>
<circle cx="3.90932" cy="3.90932" r="3.90932" transform="matrix(-1 0 0 1 1072 161.846)" fill="#D9D9D9"/>
<circle cx="3.90932" cy="3.90932" r="3.90932" transform="matrix(-1 0 0 1 920.645 226.789)" fill="#D9D9D9"/>
<circle cx="3.90932" cy="3.90932" r="3.90932" transform="matrix(-1 0 0 1 661.948 113.309)" fill="#D9D9D9"/>
<circle cx="3.90932" cy="3.90932" r="3.90932" transform="matrix(-1 0 0 1 611.387 342.895)" fill="#D9D9D9"/>
<circle cx="3.90932" cy="3.90932" r="3.90932" transform="matrix(-1 0 0 1 1291.24 113.309)" fill="#D9D9D9"/>
<circle cx="3.90932" cy="3.90932" r="3.90932" transform="matrix(-1 0 0 1 1498.18 222.879)" fill="#D9D9D9"/>
<circle cx="3.90932" cy="3.90932" r="3.90932" transform="matrix(-1 0 0 1 1236.55 315.777)" fill="#D9D9D9"/>
<circle cx="3.90932" cy="3.90932" r="3.90932" transform="matrix(-1 0 0 1 1618.86 113.309)" fill="#D9D9D9"/>
<circle cx="3.90932" cy="3.90932" r="3.90932" transform="matrix(-1 0 0 1 41.1938 206.859)" fill="#D9D9D9"/>
<circle cx="3.90932" cy="3.90932" r="3.90932" transform="matrix(-1 0 0 1 500.195 439.293)" fill="#D9D9D9"/>
<circle cx="399.492" cy="541.975" r="7.50851" fill="#D9D9D9" fill-opacity="0.45"/>
<circle cx="1726.68" cy="572.081" r="7.50851" fill="#D9D9D9" fill-opacity="0.45"/>
<circle cx="563.056" cy="676.036" r="7.50851" fill="#D9D9D9" fill-opacity="0.45"/>
<circle cx="998.009" cy="844.727" r="7.50851" fill="#D9D9D9" fill-opacity="0.45"/>
<circle cx="792.708" cy="774.788" r="7.50851" fill="#D9D9D9" fill-opacity="0.45"/>
<circle cx="1868.44" cy="813.712" r="7.50851" fill="#D9D9D9" fill-opacity="0.45"/>
<circle cx="399.492" cy="823.837" r="7.50851" fill="#D9D9D9" fill-opacity="0.45"/>
<circle cx="1112.39" cy="699.071" r="3.90932" fill="#D9D9D9" fill-opacity="0.45"/>
<circle cx="1446.25" cy="541.976" r="3.90932" fill="#D9D9D9" fill-opacity="0.45"/>
<circle cx="774.793" cy="609.441" r="3.90932" fill="#D9D9D9" fill-opacity="0.45"/>
<circle cx="926.146" cy="674.382" r="3.90932" fill="#D9D9D9" fill-opacity="0.45"/>
<circle cx="1184.84" cy="560.903" r="3.90932" fill="#D9D9D9" fill-opacity="0.45"/>
<circle cx="1235.4" cy="790.487" r="3.90932" fill="#D9D9D9" fill-opacity="0.45"/>
<circle cx="555.548" cy="560.903" r="3.90932" fill="#D9D9D9" fill-opacity="0.45"/>
<circle cx="348.612" cy="670.472" r="3.90932" fill="#D9D9D9" fill-opacity="0.45"/>
<circle cx="610.242" cy="763.37" r="3.90932" fill="#D9D9D9" fill-opacity="0.45"/>
<circle cx="155.991" cy="714.38" r="3.90932" fill="#D9D9D9" fill-opacity="0.45"/>
<circle cx="1805.6" cy="654.454" r="3.90932" fill="#D9D9D9" fill-opacity="0.45"/>
<circle cx="1339.2" cy="674.382" r="3.90932" fill="#D9D9D9" fill-opacity="0.45"/>
<circle cx="7.50851" cy="7.50851" r="7.50851" transform="matrix(-1 0 0 1 1453.76 806.203)" fill="#D9D9D9" fill-opacity="0.45"/>
<circle cx="7.50851" cy="7.50851" r="7.50851" transform="matrix(-1 0 0 1 167.76 939.52)" fill="#D9D9D9" fill-opacity="0.45"/>
<circle cx="7.50851" cy="7.50851" r="7.50851" transform="matrix(-1 0 0 1 1920 994.557)" fill="#D9D9D9" fill-opacity="0.45"/>
<circle cx="7.50851" cy="7.50851" r="7.50851" transform="matrix(-1 0 0 1 1331.38 1043.47)" fill="#D9D9D9" fill-opacity="0.45"/>
<circle cx="3.90932" cy="3.90932" r="3.90932" transform="matrix(-1 0 0 1 778.453 1070.11)" fill="#D9D9D9" fill-opacity="0.45"/>
<circle cx="3.90932" cy="3.90932" r="3.90932" transform="matrix(-1 0 0 1 444.59 913.016)" fill="#D9D9D9" fill-opacity="0.45"/>
<circle cx="3.90932" cy="3.90932" r="3.90932" transform="matrix(-1 0 0 1 1116.05 980.479)" fill="#D9D9D9" fill-opacity="0.45"/>
<circle cx="3.90932" cy="3.90932" r="3.90932" transform="matrix(-1 0 0 1 964.693 1045.42)" fill="#D9D9D9" fill-opacity="0.45"/>
<circle cx="3.90932" cy="3.90932" r="3.90932" transform="matrix(-1 0 0 1 705.997 931.941)" fill="#D9D9D9" fill-opacity="0.45"/>
<circle cx="3.90932" cy="3.90932" r="3.90932" transform="matrix(-1 0 0 1 1335.29 931.941)" fill="#D9D9D9" fill-opacity="0.45"/>
<circle cx="3.90932" cy="3.90932" r="3.90932" transform="matrix(-1 0 0 1 1542.23 1041.51)" fill="#D9D9D9" fill-opacity="0.45"/>
<circle cx="3.90932" cy="3.90932" r="3.90932" transform="matrix(-1 0 0 1 1662.91 931.941)" fill="#D9D9D9" fill-opacity="0.45"/>
<circle cx="3.90932" cy="3.90932" r="3.90932" transform="matrix(-1 0 0 1 85.2424 1025.49)" fill="#D9D9D9" fill-opacity="0.45"/>
<path d="M1131.31 443.38C1131.31 447.526 1134.67 450.888 1138.82 450.888C1142.96 450.888 1146.33 447.526 1146.33 443.38C1146.33 439.233 1142.96 435.871 1138.82 435.871C1134.67 435.871 1131.31 439.233 1131.31 443.38Z" fill="#D9D9D9"/>
</g>
<g style="mix-blend-mode:multiply" opacity="0.52" filter="url(#filter0_d_1797_2395)">
<path d="M569.54 752.107C456.848 752.108 363.074 815.306 343.255 898.757C283.385 928.518 242.416 988.942 242.416 1058.64C242.416 1097.94 255.445 1134.29 277.542 1163.86H1209.43C1210.31 1158.34 1210.76 1152.72 1210.76 1147.03C1210.76 1069.54 1127.81 1006.73 1025.48 1006.73C1008.51 1006.73 992.061 1008.46 976.44 1011.7C980.111 1000.69 982.063 989.154 982.063 977.274C982.063 899.793 899.113 836.983 796.79 836.982C786.502 836.982 776.409 837.618 766.578 838.839C726.257 786.854 653.099 752.107 569.54 752.107Z" fill="#342F91"/>
<path d="M129.333 588.221C286.878 588.221 417.975 676.572 445.683 793.237C529.383 834.844 586.658 919.319 586.658 1016.76C586.658 1071.7 568.446 1122.52 537.555 1163.86H-765.255C-766.474 1156.15 -767.101 1148.29 -767.101 1140.33C-767.101 1032.01 -651.135 944.194 -508.085 944.194C-484.351 944.194 -461.363 946.613 -439.526 951.14C-444.657 935.74 -447.383 919.616 -447.383 903.01C-447.383 794.69 -331.417 706.879 -188.366 706.879C-173.984 706.879 -159.875 707.767 -146.131 709.474C-89.7621 636.797 12.5153 588.221 129.333 588.221Z" fill="#342F91"/>
<path d="M1965.14 490.855C2163.15 490.855 2327.92 601.901 2362.73 748.532C2467.92 800.824 2539.91 906.99 2539.91 1029.45C2539.91 1098.5 2517.02 1162.37 2478.2 1214.33H840.828C839.296 1204.63 838.507 1194.75 838.507 1184.74C838.507 1048.61 984.252 938.248 1164.04 938.248C1193.87 938.248 1222.77 941.288 1250.22 946.979C1243.77 927.624 1240.34 907.358 1240.34 886.485C1240.34 750.35 1386.08 639.99 1565.87 639.99C1583.94 639.99 1601.67 641.106 1618.94 643.25C1689.78 551.908 1818.32 490.856 1965.14 490.855Z" fill="#342F91"/>
</g>
<path d="M290.516 832.199C195.884 832.199 114.882 885.549 81.5242 961.147C62.3288 952.737 41.0186 948.056 18.5798 948.056C-60.2285 948.056 -125.105 1005.81 -133.386 1080H770.635C749.996 1044.38 676.859 1018.05 589.802 1018.05C563.328 1018.05 538.14 1020.48 515.325 1024.87C507.835 917.316 410.047 832.199 290.516 832.199Z" fill="#342F91"/>
<path d="M1752.2 805.344C1640.87 805.344 1545.57 868.109 1506.32 957.049C1483.74 947.154 1458.67 941.646 1432.27 941.646C1339.55 941.646 1263.22 1009.6 1253.48 1096.88H2317.06C2292.78 1054.97 2206.74 1023.99 2104.31 1023.99C2073.17 1023.99 2043.53 1026.86 2016.69 1032.03C2007.88 905.484 1892.83 805.344 1752.2 805.344Z" fill="#342F91"/>
</g>
<defs>
<filter id="filter0_d_1797_2395" x="-769.548" y="490.855" width="3311.9" height="728.365" filterUnits="userSpaceOnUse" color-interpolation-filters="sRGB">
<feFlood flood-opacity="0" result="BackgroundImageFix"/>
<feColorMatrix in="SourceAlpha" type="matrix" values="0 0 0 0 0 0 0 0 0 0 0 0 0 0 0 0 0 0 127 0" result="hardAlpha"/>
<feOffset dy="2.44718"/>
<feGaussianBlur stdDeviation="1.22359"/>
<feComposite in2="hardAlpha" operator="out"/>
<feColorMatrix type="matrix" values="0 0 0 0 0 0 0 0 0 0 0 0 0 0 0 0 0 0 0.25 0"/>
<feBlend mode="normal" in2="BackgroundImageFix" result="effect1_dropShadow_1797_2395"/>
<feBlend mode="normal" in="SourceGraphic" in2="effect1_dropShadow_1797_2395" result="shape"/>
</filter>
<linearGradient id="paint0_linear_1797_2395" x1="960" y1="0" x2="960" y2="2423.59" gradientUnits="userSpaceOnUse">
<stop stop-color="#001433"/>
<stop offset="1" stop-color="#003C99"/>
</linearGradient>
<clipPath id="clip0_1797_2395">
<rect width="1920" height="1080" fill="white"/>
</clipPath>
</defs>
</svg>
