<svg width="393" height="418" viewBox="0 0 393 418" fill="none" xmlns="http://www.w3.org/2000/svg">
<g filter="url(#filter0_d_1827_2039)">
<path d="M156.338 279.296L134.716 267.311L117.68 298.047C117.68 298.047 121.081 306.52 125.813 309.142C130.545 311.765 139.302 310.031 139.302 310.031L156.338 279.296Z" fill="#5F5DC4"/>
<g filter="url(#filter1_d_1827_2039)">
<path d="M243.463 330.684L236.303 326.715L226.385 344.204L229.836 354.863L243.463 330.684Z" fill="#5F5DC4"/>
</g>
<path d="M250.442 318.088L171.3 260.033L161.125 278.389L231.722 327.098L230.232 329.787C230.232 329.787 231.421 334.771 233.894 336.03C236.23 337.219 240.731 335.606 240.731 335.606L250.442 318.088Z" fill="#5F5DC4"/>
<g filter="url(#filter2_d_1827_2039)">
<path d="M230.262 366.581C223.383 362.768 220.897 354.101 224.71 347.222C228.523 340.343 237.19 337.857 244.069 341.67C250.948 345.483 253.434 354.151 249.621 361.03C245.808 367.909 237.14 370.394 230.262 366.581Z" fill="#5F5DC4"/>
</g>
<g filter="url(#filter3_d_1827_2039)">
<path d="M214.106 359.098L206.946 355.129L197.028 372.618L200.479 383.277L214.106 359.098Z" fill="#5F5DC4"/>
</g>
<path d="M219.18 349.849L169.967 266.438L157.144 289.573L201.973 354.983L200.059 358.435C200.059 358.435 201.844 362.949 204.303 364.217C206.613 365.41 211.046 364.525 211.046 364.525L219.18 349.849Z" fill="#5F5DC4"/>
<g filter="url(#filter4_d_1827_2039)">
<path d="M180.896 387.17C173.439 383.037 170.744 373.641 174.878 366.184C179.011 358.727 188.407 356.033 195.864 360.166C203.321 364.3 206.015 373.695 201.882 381.152C197.748 388.609 188.353 391.304 180.896 387.17Z" fill="#5F5DC4"/>
</g>
<g filter="url(#filter5_d_1827_2039)">
<path d="M46.2443 265.941L38.934 261.889L28.5591 280.607L32.623 290.515L46.2443 265.941Z" fill="#5F5DC4"/>
</g>
<path d="M42.3835 251.741L139.2 249.271L126.377 272.405L47.0188 269.288L45.2356 272.505C45.2356 272.505 40.5618 273.544 38.1909 272.223C35.8312 270.907 34.249 266.417 34.249 266.417L42.3835 251.741Z" fill="#5F5DC4"/>
<g filter="url(#filter6_d_1827_2039)">
<path d="M13.502 294.268C6.04502 290.135 3.35068 280.739 7.48402 273.282C11.6174 265.825 21.0132 263.131 28.4701 267.264C35.9271 271.397 38.6214 280.793 34.4881 288.25C30.3548 295.707 20.959 298.401 13.502 294.268Z" fill="#5F5DC4"/>
</g>
<g filter="url(#filter7_d_1827_2039)">
<path d="M52.3573 224.758L45.1971 220.789L35.2788 238.278L38.7305 248.938L52.3573 224.758Z" fill="#5F5DC4"/>
</g>
<path d="M50.9639 207.521L142.137 243.87L131.963 262.226L53.9567 226.884L51.7532 230.859C51.7532 230.859 46.8963 232.492 44.5175 231.061C42.2713 229.711 41.2537 225.039 41.2537 225.039L50.9639 207.521Z" fill="#5F5DC4"/>
<g filter="url(#filter8_d_1827_2039)">
<path d="M21.7992 251.604C15.1755 247.933 12.7823 239.587 16.4537 232.963C20.1252 226.34 28.471 223.946 35.0947 227.618C41.7183 231.289 44.1116 239.635 40.4401 246.259C36.7687 252.883 28.4229 255.276 21.7992 251.604Z" fill="#5F5DC4"/>
</g>
<g filter="url(#filter9_dii_1827_2039)">
<path d="M175.006 259.311C175.006 259.311 167.736 248.818 160.848 245.07C154.14 241.42 141.749 240.877 141.749 240.877L120.06 280.005C120.06 280.005 126.588 291.228 133.471 295.041C140.349 298.852 153.318 298.439 153.318 298.439L175.006 259.311Z" fill="#5F5DC4"/>
</g>
<g filter="url(#filter10_d_1827_2039)">
<path d="M183.531 230.214L161.909 218.229L144.873 248.965C144.873 248.965 148.274 257.438 153.006 260.06C157.737 262.683 166.494 260.949 166.494 260.949L183.531 230.214Z" fill="#5F5DC4"/>
</g>
<g filter="url(#filter11_i_1827_2039)">
<path d="M223.479 240.628L131.444 189.613L146.707 217.406L197.335 245.469L223.479 240.628Z" fill="#4644AE"/>
</g>
<path d="M168.425 185.344L155.596 208.489L231.84 250.751C235.514 252.787 240.143 251.46 242.179 247.786L251.322 231.293L168.425 185.344Z" fill="#5F5DC4"/>
<g filter="url(#filter12_i_1827_2039)">
<path d="M99.195 146.701L91.303 157.265C86.948 163.095 88.738 171.428 95.102 174.956L145.84 203.079L158.67 179.934L99.195 146.701Z" fill="#5F5DC4"/>
</g>
<path d="M90.3245 85.6162L166.367 127.766C170.041 129.802 171.368 134.431 169.332 138.105L167.474 141.457C165.437 145.131 160.808 146.458 157.135 144.422L81.0922 102.272C77.4184 100.236 76.091 95.607 78.1273 91.9331L79.9853 88.5811C82.0217 84.9073 86.6507 83.5799 90.3245 85.6162Z" fill="#5F5DC4"/>
<path d="M117.925 168.884C115.597 171.134 112.086 171.513 109.26 169.933L105.759 167.975C101.265 165.462 100.479 159.262 103.995 155.501C108.605 150.569 114.287 143.937 117.569 138.068C123.754 127.007 127.784 107.268 127.784 107.268L145.087 116.944C145.087 116.944 141.523 137.071 135.393 148.034C131.238 155.464 122.881 164.093 117.925 168.884Z" fill="#5F5DC4"/>
<g filter="url(#filter13_i_1827_2039)">
<path d="M369.198 82.7369C371.982 73.4689 367.36 63.8939 358.676 59.6249L241.853 2.19477C229.974 -3.64483 215.652 2.66307 211.594 15.2623C204.29 37.9397 192.517 71.5729 180.425 94.0319C168.564 116.063 149.202 140.011 134.777 156.5C125.536 167.063 128.05 183.788 140.325 190.592L247.948 250.246C254.116 253.665 261.568 253.757 267.27 249.606C280.577 239.921 305.863 217.589 329.597 174.77C351.784 134.744 363.613 101.328 369.198 82.7369Z" fill="#D9D9D9"/>
</g>
<path d="M214.078 162.352L298.962 209.403C302.636 211.439 303.963 216.068 301.927 219.742L299.193 224.674C297.157 228.348 292.528 229.675 288.854 227.639L203.97 180.589C200.296 178.552 198.968 173.923 201.005 170.249L203.739 165.317C205.775 161.643 210.404 160.316 214.078 162.352Z" fill="#5F5DC4"/>
<g filter="url(#filter14_i_1827_2039)">
<path d="M260.121 244.951C263.56 238.746 261.99 230.987 256.326 226.716C239.547 214.067 204.453 188.327 177.476 173.374C140.706 152.992 90.9359 129.861 78.9519 130.444C66.9687 131.026 63.1376 141.134 67.0878 151.848C70.5685 161.288 213.212 234.629 247.073 251.931C251.102 253.989 255.966 252.446 258.16 248.489L260.121 244.951Z" fill="#D9D9D9"/>
</g>
<path d="M251.348 255.902C249.021 258.152 245.51 258.532 242.684 256.951L239.183 254.994C234.689 252.481 233.902 246.281 237.418 242.519C242.029 237.587 247.711 230.955 250.993 225.086C257.178 214.026 261.208 194.287 261.208 194.287L278.511 203.962C278.511 203.962 274.947 224.09 268.816 235.053C264.662 242.483 256.304 251.112 251.348 255.902Z" fill="#5F5DC4"/>
</g>
<defs>
<filter id="filter0_d_1827_2039" x="5.54565" y="0" width="387.461" height="417.109" filterUnits="userSpaceOnUse" color-interpolation-filters="sRGB">
<feFlood flood-opacity="0" result="BackgroundImageFix"/>
<feColorMatrix in="SourceAlpha" type="matrix" values="0 0 0 0 0 0 0 0 0 0 0 0 0 0 0 0 0 0 127 0" result="hardAlpha"/>
<feOffset dx="19" dy="24"/>
<feGaussianBlur stdDeviation="2"/>
<feComposite in2="hardAlpha" operator="out"/>
<feColorMatrix type="matrix" values="0 0 0 0 0 0 0 0 0 0 0 0 0 0 0 0 0 0 0.25 0"/>
<feBlend mode="normal" in2="BackgroundImageFix" result="effect1_dropShadow_1827_2039"/>
<feBlend mode="normal" in="SourceGraphic" in2="effect1_dropShadow_1827_2039" result="shape"/>
</filter>
<filter id="filter1_d_1827_2039" x="226.385" y="315.507" width="17.0779" height="39.3566" filterUnits="userSpaceOnUse" color-interpolation-filters="sRGB">
<feFlood flood-opacity="0" result="BackgroundImageFix"/>
<feColorMatrix in="SourceAlpha" type="matrix" values="0 0 0 0 0 0 0 0 0 0 0 0 0 0 0 0 0 0 127 0" result="hardAlpha"/>
<feOffset dy="-11.2082"/>
<feComposite in2="hardAlpha" operator="out"/>
<feColorMatrix type="matrix" values="0 0 0 0 0 0 0 0 0 0 0 0 0 0 0 0 0 0 0.25 0"/>
<feBlend mode="normal" in2="BackgroundImageFix" result="effect1_dropShadow_1827_2039"/>
<feBlend mode="normal" in="SourceGraphic" in2="effect1_dropShadow_1827_2039" result="shape"/>
</filter>
<filter id="filter2_d_1827_2039" x="222.922" y="331.269" width="35.0742" height="37.1002" filterUnits="userSpaceOnUse" color-interpolation-filters="sRGB">
<feFlood flood-opacity="0" result="BackgroundImageFix"/>
<feColorMatrix in="SourceAlpha" type="matrix" values="0 0 0 0 0 0 0 0 0 0 0 0 0 0 0 0 0 0 127 0" result="hardAlpha"/>
<feOffset dx="6.58712" dy="-8.61392"/>
<feComposite in2="hardAlpha" operator="out"/>
<feColorMatrix type="matrix" values="0 0 0 0 0 0 0 0 0 0 0 0 0 0 0 0 0 0 0.25 0"/>
<feBlend mode="normal" in2="BackgroundImageFix" result="effect1_dropShadow_1827_2039"/>
<feBlend mode="normal" in="SourceGraphic" in2="effect1_dropShadow_1827_2039" result="shape"/>
</filter>
<filter id="filter3_d_1827_2039" x="197.028" y="343.921" width="17.0779" height="39.3566" filterUnits="userSpaceOnUse" color-interpolation-filters="sRGB">
<feFlood flood-opacity="0" result="BackgroundImageFix"/>
<feColorMatrix in="SourceAlpha" type="matrix" values="0 0 0 0 0 0 0 0 0 0 0 0 0 0 0 0 0 0 127 0" result="hardAlpha"/>
<feOffset dy="-11.2082"/>
<feComposite in2="hardAlpha" operator="out"/>
<feColorMatrix type="matrix" values="0 0 0 0 0 0 0 0 0 0 0 0 0 0 0 0 0 0 0.25 0"/>
<feBlend mode="normal" in2="BackgroundImageFix" result="effect1_dropShadow_1827_2039"/>
<feBlend mode="normal" in="SourceGraphic" in2="effect1_dropShadow_1827_2039" result="shape"/>
</filter>
<filter id="filter4_d_1827_2039" x="172.939" y="349.615" width="30.8806" height="39.4948" filterUnits="userSpaceOnUse" color-interpolation-filters="sRGB">
<feFlood flood-opacity="0" result="BackgroundImageFix"/>
<feColorMatrix in="SourceAlpha" type="matrix" values="0 0 0 0 0 0 0 0 0 0 0 0 0 0 0 0 0 0 127 0" result="hardAlpha"/>
<feOffset dy="-8.61392"/>
<feComposite in2="hardAlpha" operator="out"/>
<feColorMatrix type="matrix" values="0 0 0 0 0 0 0 0 0 0 0 0 0 0 0 0 0 0 0.25 0"/>
<feBlend mode="normal" in2="BackgroundImageFix" result="effect1_dropShadow_1827_2039"/>
<feBlend mode="normal" in="SourceGraphic" in2="effect1_dropShadow_1827_2039" result="shape"/>
</filter>
<filter id="filter5_d_1827_2039" x="28.5591" y="249.48" width="17.6853" height="41.0361" filterUnits="userSpaceOnUse" color-interpolation-filters="sRGB">
<feFlood flood-opacity="0" result="BackgroundImageFix"/>
<feColorMatrix in="SourceAlpha" type="matrix" values="0 0 0 0 0 0 0 0 0 0 0 0 0 0 0 0 0 0 127 0" result="hardAlpha"/>
<feOffset dy="-12.4091"/>
<feComposite in2="hardAlpha" operator="out"/>
<feColorMatrix type="matrix" values="0 0 0 0 0 0 0 0 0 0 0 0 0 0 0 0 0 0 0.25 0"/>
<feBlend mode="normal" in2="BackgroundImageFix" result="effect1_dropShadow_1827_2039"/>
<feBlend mode="normal" in="SourceGraphic" in2="effect1_dropShadow_1827_2039" result="shape"/>
</filter>
<filter id="filter6_d_1827_2039" x="5.54565" y="259.752" width="33.4141" height="36.4546" filterUnits="userSpaceOnUse" color-interpolation-filters="sRGB">
<feFlood flood-opacity="0" result="BackgroundImageFix"/>
<feColorMatrix in="SourceAlpha" type="matrix" values="0 0 0 0 0 0 0 0 0 0 0 0 0 0 0 0 0 0 127 0" result="hardAlpha"/>
<feOffset dx="2.53351" dy="-5.57372"/>
<feComposite in2="hardAlpha" operator="out"/>
<feColorMatrix type="matrix" values="0 0 0 0 0 0 0 0 0 0 0 0 0 0 0 0 0 0 0.25 0"/>
<feBlend mode="normal" in2="BackgroundImageFix" result="effect1_dropShadow_1827_2039"/>
<feBlend mode="normal" in="SourceGraphic" in2="effect1_dropShadow_1827_2039" result="shape"/>
</filter>
<filter id="filter7_d_1827_2039" x="35.2788" y="209.581" width="17.0786" height="39.3566" filterUnits="userSpaceOnUse" color-interpolation-filters="sRGB">
<feFlood flood-opacity="0" result="BackgroundImageFix"/>
<feColorMatrix in="SourceAlpha" type="matrix" values="0 0 0 0 0 0 0 0 0 0 0 0 0 0 0 0 0 0 127 0" result="hardAlpha"/>
<feOffset dy="-11.2082"/>
<feComposite in2="hardAlpha" operator="out"/>
<feColorMatrix type="matrix" values="0 0 0 0 0 0 0 0 0 0 0 0 0 0 0 0 0 0 0.25 0"/>
<feBlend mode="normal" in2="BackgroundImageFix" result="effect1_dropShadow_1827_2039"/>
<feBlend mode="normal" in="SourceGraphic" in2="effect1_dropShadow_1827_2039" result="shape"/>
</filter>
<filter id="filter8_d_1827_2039" x="14.7319" y="220.323" width="30.4701" height="33.0034" filterUnits="userSpaceOnUse" color-interpolation-filters="sRGB">
<feFlood flood-opacity="0" result="BackgroundImageFix"/>
<feColorMatrix in="SourceAlpha" type="matrix" values="0 0 0 0 0 0 0 0 0 0 0 0 0 0 0 0 0 0 127 0" result="hardAlpha"/>
<feOffset dx="3.04021" dy="-5.57372"/>
<feComposite in2="hardAlpha" operator="out"/>
<feColorMatrix type="matrix" values="0 0 0 0 0 0 0 0 0 0 0 0 0 0 0 0 0 0 0.25 0"/>
<feBlend mode="normal" in2="BackgroundImageFix" result="effect1_dropShadow_1827_2039"/>
<feBlend mode="normal" in="SourceGraphic" in2="effect1_dropShadow_1827_2039" result="shape"/>
</filter>
<filter id="filter9_dii_1827_2039" x="118.185" y="238.85" width="61.3812" height="66.1881" filterUnits="userSpaceOnUse" color-interpolation-filters="sRGB">
<feFlood flood-opacity="0" result="BackgroundImageFix"/>
<feColorMatrix in="SourceAlpha" type="matrix" values="0 0 0 0 0 0 0 0 0 0 0 0 0 0 0 0 0 0 127 0" result="hardAlpha"/>
<feOffset dx="2.53351" dy="4.56031"/>
<feGaussianBlur stdDeviation="1.0134"/>
<feComposite in2="hardAlpha" operator="out"/>
<feColorMatrix type="matrix" values="0 0 0 0 0 0 0 0 0 0 0 0 0 0 0 0 0 0 0.25 0"/>
<feBlend mode="normal" in2="BackgroundImageFix" result="effect1_dropShadow_1827_2039"/>
<feBlend mode="normal" in="SourceGraphic" in2="effect1_dropShadow_1827_2039" result="shape"/>
<feColorMatrix in="SourceAlpha" type="matrix" values="0 0 0 0 0 0 0 0 0 0 0 0 0 0 0 0 0 0 127 0" result="hardAlpha"/>
<feOffset dx="-5.57372"/>
<feGaussianBlur stdDeviation="0.937398"/>
<feComposite in2="hardAlpha" operator="arithmetic" k2="-1" k3="1"/>
<feColorMatrix type="matrix" values="0 0 0 0 0 0 0 0 0 0 0 0 0 0 0 0 0 0 0.25 0"/>
<feBlend mode="normal" in2="shape" result="effect2_innerShadow_1827_2039"/>
<feColorMatrix in="SourceAlpha" type="matrix" values="0 0 0 0 0 0 0 0 0 0 0 0 0 0 0 0 0 0 127 0" result="hardAlpha"/>
<feOffset dx="2.53351" dy="-3.54691"/>
<feGaussianBlur stdDeviation="1.0134"/>
<feComposite in2="hardAlpha" operator="arithmetic" k2="-1" k3="1"/>
<feColorMatrix type="matrix" values="0 0 0 0 0 0 0 0 0 0 0 0 0 0 0 0 0 0 0.25 0"/>
<feBlend mode="normal" in2="effect2_innerShadow_1827_2039" result="effect3_innerShadow_1827_2039"/>
</filter>
<filter id="filter10_d_1827_2039" x="144.873" y="218.229" width="42.2859" height="48.4293" filterUnits="userSpaceOnUse" color-interpolation-filters="sRGB">
<feFlood flood-opacity="0" result="BackgroundImageFix"/>
<feColorMatrix in="SourceAlpha" type="matrix" values="0 0 0 0 0 0 0 0 0 0 0 0 0 0 0 0 0 0 127 0" result="hardAlpha"/>
<feOffset dx="2.02681" dy="3.54691"/>
<feGaussianBlur stdDeviation="0.800588"/>
<feComposite in2="hardAlpha" operator="out"/>
<feColorMatrix type="matrix" values="0 0 0 0 0 0 0 0 0 0 0 0 0 0 0 0 0 0 0.25 0"/>
<feBlend mode="normal" in2="BackgroundImageFix" result="effect1_dropShadow_1827_2039"/>
<feBlend mode="normal" in="SourceGraphic" in2="effect1_dropShadow_1827_2039" result="shape"/>
</filter>
<filter id="filter11_i_1827_2039" x="131.444" y="189.613" width="92.0349" height="57.4566" filterUnits="userSpaceOnUse" color-interpolation-filters="sRGB">
<feFlood flood-opacity="0" result="BackgroundImageFix"/>
<feBlend mode="normal" in="SourceGraphic" in2="BackgroundImageFix" result="shape"/>
<feColorMatrix in="SourceAlpha" type="matrix" values="0 0 0 0 0 0 0 0 0 0 0 0 0 0 0 0 0 0 127 0" result="hardAlpha"/>
<feOffset dy="8.80647"/>
<feGaussianBlur stdDeviation="0.800588"/>
<feComposite in2="hardAlpha" operator="arithmetic" k2="-1" k3="1"/>
<feColorMatrix type="matrix" values="0 0 0 0 0 0 0 0 0 0 0 0 0 0 0 0 0 0 0.25 0"/>
<feBlend mode="normal" in2="shape" result="effect1_innerShadow_1827_2039"/>
</filter>
<filter id="filter12_i_1827_2039" x="86.8863" y="146.701" width="71.7836" height="58.4057" filterUnits="userSpaceOnUse" color-interpolation-filters="sRGB">
<feFlood flood-opacity="0" result="BackgroundImageFix"/>
<feBlend mode="normal" in="SourceGraphic" in2="BackgroundImageFix" result="shape"/>
<feColorMatrix in="SourceAlpha" type="matrix" values="0 0 0 0 0 0 0 0 0 0 0 0 0 0 0 0 0 0 127 0" result="hardAlpha"/>
<feOffset dx="-26.3485" dy="13.1742"/>
<feGaussianBlur stdDeviation="1.0134"/>
<feComposite in2="hardAlpha" operator="arithmetic" k2="-1" k3="1"/>
<feColorMatrix type="matrix" values="0 0 0 0 0 0 0 0 0 0 0 0 0 0 0 0 0 0 0.25 0"/>
<feBlend mode="normal" in2="shape" result="effect1_innerShadow_1827_2039"/>
</filter>
<filter id="filter13_i_1827_2039" x="129.201" y="-2.0268" width="242.832" height="254.794" filterUnits="userSpaceOnUse" color-interpolation-filters="sRGB">
<feFlood flood-opacity="0" result="BackgroundImageFix"/>
<feBlend mode="normal" in="SourceGraphic" in2="BackgroundImageFix" result="shape"/>
<feColorMatrix in="SourceAlpha" type="matrix" values="0 0 0 0 0 0 0 0 0 0 0 0 0 0 0 0 0 0 127 0" result="hardAlpha"/>
<feOffset dx="12.6675" dy="-36.851"/>
<feGaussianBlur stdDeviation="1.0134"/>
<feComposite in2="hardAlpha" operator="arithmetic" k2="-1" k3="1"/>
<feColorMatrix type="matrix" values="0 0 0 0 0 0 0 0 0 0 0 0 0 0 0 0 0 0 0.25 0"/>
<feBlend mode="normal" in2="shape" result="effect1_innerShadow_1827_2039"/>
</filter>
<filter id="filter14_i_1827_2039" x="63.563" y="128.407" width="198.368" height="124.437" filterUnits="userSpaceOnUse" color-interpolation-filters="sRGB">
<feFlood flood-opacity="0" result="BackgroundImageFix"/>
<feBlend mode="normal" in="SourceGraphic" in2="BackgroundImageFix" result="shape"/>
<feColorMatrix in="SourceAlpha" type="matrix" values="0 0 0 0 0 0 0 0 0 0 0 0 0 0 0 0 0 0 127 0" result="hardAlpha"/>
<feOffset dx="-12.6675" dy="-19.5771"/>
<feGaussianBlur stdDeviation="1.0134"/>
<feComposite in2="hardAlpha" operator="arithmetic" k2="-1" k3="1"/>
<feColorMatrix type="matrix" values="0 0 0 0 0 0 0 0 0 0 0 0 0 0 0 0 0 0 0.25 0"/>
<feBlend mode="normal" in2="shape" result="effect1_innerShadow_1827_2039"/>
</filter>
</defs>
</svg>
