<svg width="184" height="215" viewBox="0 0 184 215" fill="none" xmlns="http://www.w3.org/2000/svg">
<g filter="url(#filter0_d_1829_4067)">
<g filter="url(#filter1_ii_1829_4067)">
<g clip-path="url(#paint0_angular_1829_4067_clip_path)" data-figma-skip-parse="true"><g transform="matrix(0.0184533 0.0436081 -0.059607 0.0252234 59.4743 53.6603)"><foreignObject x="-1512.25" y="-1512.25" width="3024.51" height="3024.51"><div xmlns="http://www.w3.org/1999/xhtml" style="background:conic-gradient(from 90deg,rgba(223, 82, 118, 1) 0deg,rgba(221, 84, 84, 1) 63.557deg,rgba(228, 157, 78, 1) 102.124deg,rgba(209, 218, 90, 1) 129.096deg,rgba(82, 225, 130, 1) 154.695deg,rgba(104, 219, 206, 1) 180.018deg,rgba(90, 149, 213, 1) 206.061deg,rgba(147, 110, 220, 1) 236.143deg,rgba(181, 75, 210, 1) 261.684deg,rgba(225, 79, 154, 1) 291.421deg,rgba(223, 82, 118, 1) 360deg);height:100%;width:100%;opacity:1"></div></foreignObject></g></g><path d="M40.81 98.9397C45.0873 101.059 50.2728 99.3097 52.3923 95.0327C54.5118 90.7547 52.7625 85.5697 48.4852 83.4497L44.6476 91.1947L40.81 98.9397ZM44.6476 91.1947C48.4852 83.4497 48.4853 83.4497 48.4852 83.4497C48.4856 83.4497 48.485 83.4497 48.4852 83.4497C48.4844 83.4487 48.4823 83.4487 48.4807 83.4477C48.4774 83.4457 48.4724 83.4437 48.4656 83.4407C48.4521 83.4337 48.4316 83.4237 48.4043 83.4097C48.3499 83.3827 48.2685 83.3427 48.162 83.2897C47.949 83.1837 47.6355 83.0277 47.2357 82.8287C46.436 82.4307 45.2915 81.8597 43.9155 81.1697C41.1613 79.7887 37.4892 77.9377 33.8021 76.0477C30.1012 74.1497 26.4413 72.2414 23.689 70.7387C22.2987 69.9796 21.2335 69.3748 20.5379 68.9516C20.1742 68.7304 20.0388 68.6357 20.0485 68.6427C20.0605 68.6513 20.1004 68.6801 20.1606 68.7272C20.2174 68.7717 20.3233 68.8565 20.4585 68.977C20.5824 69.0876 20.8123 69.3004 21.0801 69.6027C21.3033 69.8547 21.8229 70.4673 22.2838 71.3865L14.5572 75.2605L6.83057 79.1347C7.64597 80.7607 8.80097 81.7427 8.94877 81.8747C9.34387 82.2277 9.71787 82.5067 9.96687 82.6857C10.4824 83.0557 11.0489 83.4137 11.5547 83.7207C12.598 84.3557 13.9424 85.1127 15.405 85.9117C18.3588 87.5237 22.1788 89.5137 25.915 91.4297C29.6651 93.3527 33.3875 95.2297 36.1686 96.6237C37.5602 97.3207 38.7184 97.8987 39.5296 98.3027C39.9353 98.5047 40.2542 98.6637 40.4723 98.7717C40.5814 98.8257 40.6652 98.8677 40.7221 98.8957C40.7505 98.9097 40.7722 98.9207 40.7869 98.9277C40.7943 98.9317 40.7999 98.9347 40.8038 98.9367C40.8057 98.9377 40.8072 98.9377 40.8082 98.9387C40.8087 98.9387 40.8092 98.9387 40.8094 98.9387C40.8098 98.9397 40.81 98.9397 44.6476 91.1947ZM14.5572 75.2605L22.2838 71.3865C23.3512 73.5155 23.1822 75.4678 23.1802 75.5157C23.1588 76.0217 23.0937 76.3887 23.0753 76.4897C23.0325 76.7267 23.0012 76.8117 23.0515 76.6327C23.1382 76.3237 23.3208 75.7437 23.6298 74.8432C24.2342 73.0812 25.1629 70.5505 26.3383 67.4536C28.6797 61.2843 31.8976 53.1359 35.1995 44.9785C38.5017 36.8203 41.8639 28.7122 44.4918 22.6208C45.8111 19.5627 46.9153 17.0828 47.7207 15.3784C48.132 14.5081 48.4107 13.9564 48.5694 13.6662C48.6591 13.5021 48.6287 13.5725 48.5029 13.7585C48.4457 13.8429 48.2577 14.118 47.9557 14.4603C47.8484 14.5821 46.8895 15.7249 45.1901 16.5091L41.5686 8.66101L37.9471 0.812904C36.1961 1.6209 35.1737 2.8187 34.9914 3.0255C34.6144 3.4528 34.3398 3.8431 34.185 4.0719C33.8638 4.5466 33.5935 5.0225 33.4019 5.3728C32.998 6.1115 32.5487 7.02451 32.0911 7.99271C31.1589 9.96551 29.9629 12.6583 28.6191 15.7732C25.9209 22.0277 22.5053 30.2664 19.1757 38.4925C15.8457 46.7194 12.5776 54.9928 10.1764 61.3197C8.98047 64.4708 7.97377 67.2067 7.27817 69.2344C6.93717 70.2285 6.62867 71.1745 6.40807 71.9603C6.30477 72.3284 6.16587 72.853 6.06447 73.4136C6.01677 73.6771 5.93457 74.1764 5.90887 74.786C5.90247 74.9371 5.74177 76.9627 6.83057 79.1347L14.5572 75.2605ZM41.5686 8.66101L45.1901 16.5091C43.3772 17.3457 41.7816 17.2891 41.594 17.287C41.0999 17.2814 40.7405 17.2298 40.6269 17.2128C40.3773 17.1755 40.2837 17.144 40.4582 17.1884C40.7614 17.2655 41.3416 17.4341 42.2538 17.7278C44.0373 18.3021 46.5938 19.193 49.724 20.3279C55.9572 22.5878 64.1669 25.7064 72.3711 28.9147C80.5762 32.1236 88.7082 35.3955 94.7892 37.9594C97.8452 39.2478 100.299 40.3224 101.964 41.1043C102.82 41.506 103.325 41.7645 103.559 41.8954C103.702 41.9749 103.563 41.9071 103.302 41.7187C103.183 41.633 102.827 41.372 102.407 40.9528C102.227 40.7724 100.866 39.4707 100.25 37.221L108.586 34.9377L116.923 32.6544C116.292 30.3506 114.885 28.9834 114.628 28.7263C114.131 28.2303 113.668 27.8815 113.412 27.6972C112.878 27.3116 112.347 27.0036 111.988 26.8029C111.219 26.3734 110.28 25.9115 109.312 25.4571C107.331 24.5268 104.626 23.3464 101.505 22.0307C95.2342 19.3865 86.9502 16.0545 78.6672 12.8152C70.3822 9.5754 62.0295 6.4015 55.6161 4.0763C52.423 2.9186 49.6351 1.9437 47.5519 1.273C46.5308 0.944204 45.547 0.645505 44.718 0.434705C44.3264 0.335105 43.7747 0.204605 43.1827 0.116105C42.8978 0.0735052 42.3961 0.00820486 41.7897 0.00140486C41.4897 -0.00199514 39.8116 -0.0474965 37.9471 0.812904L41.5686 8.66101ZM108.586 34.9377L100.25 37.221C99.9572 36.1509 99.9672 35.3086 99.9672 35.2548C99.9662 35.1301 99.9692 35.0399 99.9702 34.9957C99.9722 34.9713 99.9732 34.9533 99.9732 34.9425C99.9742 34.937 99.9742 34.9328 99.9742 34.9302C99.9742 34.9325 99.9742 34.9351 99.9732 34.9396C99.9722 34.9486 99.9712 34.9615 99.9692 34.9784C99.9662 35.0126 99.9612 35.059 99.9542 35.1187C99.9402 35.2397 99.9192 35.3967 99.8912 35.5931C99.7752 36.408 99.5722 37.5962 99.2912 39.1027C98.7342 42.0896 97.9382 45.9688 97.1142 49.857C96.2932 53.7315 95.4562 57.5587 94.8232 60.4211C94.5072 61.8512 94.2422 63.038 94.0572 63.8665C93.9642 64.2807 93.8912 64.6052 93.8422 64.8255C93.8172 64.9357 93.7982 65.0198 93.7852 65.0761C93.7792 65.1043 93.7742 65.1255 93.7712 65.1395C93.7702 65.1465 93.7682 65.1517 93.7682 65.1551C93.7672 65.1568 93.7672 65.158 93.7672 65.1588C93.7672 65.1586 93.7672 65.1591 93.7672 65.1588C93.7672 65.1589 93.7672 65.1597 102.198 67.0632C110.629 68.9666 110.629 68.9664 110.629 68.9661C110.629 68.9658 110.629 68.9653 110.629 68.9648C110.63 68.9637 110.63 68.9622 110.63 68.9602C110.631 68.9562 110.633 68.9504 110.634 68.9428C110.638 68.9275 110.643 68.9051 110.65 68.8757C110.663 68.8169 110.682 68.7301 110.708 68.6172C110.758 68.3915 110.833 68.0613 110.927 67.6409C111.115 66.8004 111.382 65.5991 111.702 64.1526C112.341 61.2617 113.19 57.3819 114.025 53.4412C114.858 49.5143 115.688 45.4702 116.285 42.2714C116.581 40.685 116.836 39.2148 117.004 38.0363C117.087 37.4596 117.166 36.832 117.211 36.2411C117.233 35.9501 117.256 35.5515 117.253 35.1093C117.25 34.839 117.245 33.8326 116.923 32.6544L108.586 34.9377Z" data-figma-gradient-fill="{&#34;type&#34;:&#34;GRADIENT_ANGULAR&#34;,&#34;stops&#34;:[{&#34;color&#34;:{&#34;r&#34;:0.87019217014312744,&#34;g&#34;:0.33155158162117004,&#34;b&#34;:0.33155158162117004,&#34;a&#34;:1.0},&#34;position&#34;:0.17654733359813690},{&#34;color&#34;:{&#34;r&#34;:0.89423060417175293,&#34;g&#34;:0.61803150177001953,&#34;b&#34;:0.30631697177886963,&#34;a&#34;:1.0},&#34;position&#34;:0.28367704153060913},{&#34;color&#34;:{&#34;r&#34;:0.82237499952316284,&#34;g&#34;:0.85576921701431274,&#34;b&#34;:0.35485622286796570,&#34;a&#34;:1.0},&#34;position&#34;:0.35860040783882141},{&#34;color&#34;:{&#34;r&#34;:0.32428810000419617,&#34;g&#34;:0.88461536169052124,&#34;b&#34;:0.51106387376785278,&#34;a&#34;:1.0},&#34;position&#34;:0.42970940470695496},{&#34;color&#34;:{&#34;r&#34;:0.41063585877418518,&#34;g&#34;:0.86057692766189575,&#34;b&#34;:0.80796039104461670,&#34;a&#34;:1.0},&#34;position&#34;:0.50005096197128296},{&#34;color&#34;:{&#34;r&#34;:0.35492557287216187,&#34;g&#34;:0.58770513534545898,&#34;b&#34;:0.83653843402862549,&#34;a&#34;:1.0},&#34;position&#34;:0.57239121198654175},{&#34;color&#34;:{&#34;r&#34;:0.57793152332305908,&#34;g&#34;:0.43373242020606995,&#34;b&#34;:0.86538463830947876,&#34;a&#34;:1.0},&#34;position&#34;:0.65595370531082153},{&#34;color&#34;:{&#34;r&#34;:0.71171373128890991,&#34;g&#34;:0.29518768191337585,&#34;b&#34;:0.82692307233810425,&#34;a&#34;:1.0},&#34;position&#34;:0.72690051794052124},{&#34;color&#34;:{&#34;r&#34;:0.88461536169052124,&#34;g&#34;:0.31152921915054321,&#34;b&#34;:0.60762375593185425,&#34;a&#34;:1.0},&#34;position&#34;:0.80950349569320679}],&#34;stopsVar&#34;:[{&#34;color&#34;:{&#34;r&#34;:0.87019217014312744,&#34;g&#34;:0.33155158162117004,&#34;b&#34;:0.33155158162117004,&#34;a&#34;:1.0},&#34;position&#34;:0.17654733359813690},{&#34;color&#34;:{&#34;r&#34;:0.89423060417175293,&#34;g&#34;:0.61803150177001953,&#34;b&#34;:0.30631697177886963,&#34;a&#34;:1.0},&#34;position&#34;:0.28367704153060913},{&#34;color&#34;:{&#34;r&#34;:0.82237499952316284,&#34;g&#34;:0.85576921701431274,&#34;b&#34;:0.35485622286796570,&#34;a&#34;:1.0},&#34;position&#34;:0.35860040783882141},{&#34;color&#34;:{&#34;r&#34;:0.32428810000419617,&#34;g&#34;:0.88461536169052124,&#34;b&#34;:0.51106387376785278,&#34;a&#34;:1.0},&#34;position&#34;:0.42970940470695496},{&#34;color&#34;:{&#34;r&#34;:0.41063585877418518,&#34;g&#34;:0.86057692766189575,&#34;b&#34;:0.80796039104461670,&#34;a&#34;:1.0},&#34;position&#34;:0.50005096197128296},{&#34;color&#34;:{&#34;r&#34;:0.35492557287216187,&#34;g&#34;:0.58770513534545898,&#34;b&#34;:0.83653843402862549,&#34;a&#34;:1.0},&#34;position&#34;:0.57239121198654175},{&#34;color&#34;:{&#34;r&#34;:0.57793152332305908,&#34;g&#34;:0.43373242020606995,&#34;b&#34;:0.86538463830947876,&#34;a&#34;:1.0},&#34;position&#34;:0.65595370531082153},{&#34;color&#34;:{&#34;r&#34;:0.71171373128890991,&#34;g&#34;:0.29518768191337585,&#34;b&#34;:0.82692307233810425,&#34;a&#34;:1.0},&#34;position&#34;:0.72690051794052124},{&#34;color&#34;:{&#34;r&#34;:0.88461536169052124,&#34;g&#34;:0.31152921915054321,&#34;b&#34;:0.60762375593185425,&#34;a&#34;:1.0},&#34;position&#34;:0.80950349569320679}],&#34;transform&#34;:{&#34;m00&#34;:36.906520843505859,&#34;m01&#34;:-119.21395111083984,&#34;m02&#34;:100.62802886962891,&#34;m10&#34;:87.216171264648438,&#34;m11&#34;:50.446720123291016,&#34;m12&#34;:-15.171172142028809},&#34;opacity&#34;:1.0,&#34;blendMode&#34;:&#34;NORMAL&#34;,&#34;visible&#34;:true}"/>
</g>
<path d="M118.845 187.56C154.211 172.425 170.611 131.486 155.476 96.1196C140.341 60.7536 99.4018 44.3532 64.0358 59.4882C28.6698 74.6232 12.2694 115.562 27.4044 150.928C42.5394 186.294 83.4786 202.695 118.845 187.56Z" fill="white"/>
<path d="M108.336 117.845C110.461 117.54 111.936 115.57 111.631 113.446C111.326 111.321 109.357 109.846 107.232 110.151C105.107 110.456 103.632 112.425 103.937 114.55C104.242 116.674 106.212 118.15 108.336 117.845Z" fill="black"/>
<path d="M73.5109 131.903C75.6354 131.598 77.1104 129.629 76.8055 127.504C76.5005 125.38 74.531 123.905 72.4065 124.21C70.282 124.514 68.8069 126.484 69.1119 128.609C69.4168 130.733 71.3863 132.208 73.5109 131.903Z" fill="black"/>
<path d="M85.6822 126.232C85.6822 126.232 88.2222 131.304 95.0692 128.509C101.916 125.714 99.5872 120.008 99.5872 120.008" stroke="black" stroke-width="6.05036" stroke-linecap="round"/>
</g>
<defs>
<filter id="filter0_d_1829_4067" x="5.897" y="0" width="177.687" height="200.974" filterUnits="userSpaceOnUse" color-interpolation-filters="sRGB">
<feFlood flood-opacity="0" result="BackgroundImageFix"/>
<feColorMatrix in="SourceAlpha" type="matrix" values="0 0 0 0 0 0 0 0 0 0 0 0 0 0 0 0 0 0 127 0" result="hardAlpha"/>
<feOffset dx="19.0154" dy="4.32168"/>
<feGaussianBlur stdDeviation="1.72867"/>
<feComposite in2="hardAlpha" operator="out"/>
<feColorMatrix type="matrix" values="0 0 0 0 0 0 0 0 0 0 0 0 0 0 0 0 0 0 0.25 0"/>
<feBlend mode="normal" in2="BackgroundImageFix" result="effect1_dropShadow_1829_4067"/>
<feBlend mode="normal" in="SourceGraphic" in2="effect1_dropShadow_1829_4067" result="shape"/>
</filter>
<filter id="filter1_ii_1829_4067" x="5.897" y="-3.45734" width="113.085" height="106.755" filterUnits="userSpaceOnUse" color-interpolation-filters="sRGB">
<feFlood flood-opacity="0" result="BackgroundImageFix"/>
<feBlend mode="normal" in="SourceGraphic" in2="BackgroundImageFix" result="shape"/>
<feColorMatrix in="SourceAlpha" type="matrix" values="0 0 0 0 0 0 0 0 0 0 0 0 0 0 0 0 0 0 127 0" result="hardAlpha"/>
<feOffset dx="1.72867" dy="6.05036"/>
<feGaussianBlur stdDeviation="1.72867"/>
<feComposite in2="hardAlpha" operator="arithmetic" k2="-1" k3="1"/>
<feColorMatrix type="matrix" values="0 0 0 0 0 0 0 0 0 0 0 0 0 0 0 0 0 0 0.25 0"/>
<feBlend mode="normal" in2="shape" result="effect1_innerShadow_1829_4067"/>
<feColorMatrix in="SourceAlpha" type="matrix" values="0 0 0 0 0 0 0 0 0 0 0 0 0 0 0 0 0 0 127 0" result="hardAlpha"/>
<feOffset dy="-5.18602"/>
<feGaussianBlur stdDeviation="1.72867"/>
<feComposite in2="hardAlpha" operator="arithmetic" k2="-1" k3="1"/>
<feColorMatrix type="matrix" values="0 0 0 0 0 0 0 0 0 0 0 0 0 0 0 0 0 0 0.25 0"/>
<feBlend mode="normal" in2="effect1_innerShadow_1829_4067" result="effect2_innerShadow_1829_4067"/>
</filter>
<clipPath id="paint0_angular_1829_4067_clip_path"><path d="M40.81 98.9397C45.0873 101.059 50.2728 99.3097 52.3923 95.0327C54.5118 90.7547 52.7625 85.5697 48.4852 83.4497L44.6476 91.1947L40.81 98.9397ZM44.6476 91.1947C48.4852 83.4497 48.4853 83.4497 48.4852 83.4497C48.4856 83.4497 48.485 83.4497 48.4852 83.4497C48.4844 83.4487 48.4823 83.4487 48.4807 83.4477C48.4774 83.4457 48.4724 83.4437 48.4656 83.4407C48.4521 83.4337 48.4316 83.4237 48.4043 83.4097C48.3499 83.3827 48.2685 83.3427 48.162 83.2897C47.949 83.1837 47.6355 83.0277 47.2357 82.8287C46.436 82.4307 45.2915 81.8597 43.9155 81.1697C41.1613 79.7887 37.4892 77.9377 33.8021 76.0477C30.1012 74.1497 26.4413 72.2414 23.689 70.7387C22.2987 69.9796 21.2335 69.3748 20.5379 68.9516C20.1742 68.7304 20.0388 68.6357 20.0485 68.6427C20.0605 68.6513 20.1004 68.6801 20.1606 68.7272C20.2174 68.7717 20.3233 68.8565 20.4585 68.977C20.5824 69.0876 20.8123 69.3004 21.0801 69.6027C21.3033 69.8547 21.8229 70.4673 22.2838 71.3865L14.5572 75.2605L6.83057 79.1347C7.64597 80.7607 8.80097 81.7427 8.94877 81.8747C9.34387 82.2277 9.71787 82.5067 9.96687 82.6857C10.4824 83.0557 11.0489 83.4137 11.5547 83.7207C12.598 84.3557 13.9424 85.1127 15.405 85.9117C18.3588 87.5237 22.1788 89.5137 25.915 91.4297C29.6651 93.3527 33.3875 95.2297 36.1686 96.6237C37.5602 97.3207 38.7184 97.8987 39.5296 98.3027C39.9353 98.5047 40.2542 98.6637 40.4723 98.7717C40.5814 98.8257 40.6652 98.8677 40.7221 98.8957C40.7505 98.9097 40.7722 98.9207 40.7869 98.9277C40.7943 98.9317 40.7999 98.9347 40.8038 98.9367C40.8057 98.9377 40.8072 98.9377 40.8082 98.9387C40.8087 98.9387 40.8092 98.9387 40.8094 98.9387C40.8098 98.9397 40.81 98.9397 44.6476 91.1947ZM14.5572 75.2605L22.2838 71.3865C23.3512 73.5155 23.1822 75.4678 23.1802 75.5157C23.1588 76.0217 23.0937 76.3887 23.0753 76.4897C23.0325 76.7267 23.0012 76.8117 23.0515 76.6327C23.1382 76.3237 23.3208 75.7437 23.6298 74.8432C24.2342 73.0812 25.1629 70.5505 26.3383 67.4536C28.6797 61.2843 31.8976 53.1359 35.1995 44.9785C38.5017 36.8203 41.8639 28.7122 44.4918 22.6208C45.8111 19.5627 46.9153 17.0828 47.7207 15.3784C48.132 14.5081 48.4107 13.9564 48.5694 13.6662C48.6591 13.5021 48.6287 13.5725 48.5029 13.7585C48.4457 13.8429 48.2577 14.118 47.9557 14.4603C47.8484 14.5821 46.8895 15.7249 45.1901 16.5091L41.5686 8.66101L37.9471 0.812904C36.1961 1.6209 35.1737 2.8187 34.9914 3.0255C34.6144 3.4528 34.3398 3.8431 34.185 4.0719C33.8638 4.5466 33.5935 5.0225 33.4019 5.3728C32.998 6.1115 32.5487 7.02451 32.0911 7.99271C31.1589 9.96551 29.9629 12.6583 28.6191 15.7732C25.9209 22.0277 22.5053 30.2664 19.1757 38.4925C15.8457 46.7194 12.5776 54.9928 10.1764 61.3197C8.98047 64.4708 7.97377 67.2067 7.27817 69.2344C6.93717 70.2285 6.62867 71.1745 6.40807 71.9603C6.30477 72.3284 6.16587 72.853 6.06447 73.4136C6.01677 73.6771 5.93457 74.1764 5.90887 74.786C5.90247 74.9371 5.74177 76.9627 6.83057 79.1347L14.5572 75.2605ZM41.5686 8.66101L45.1901 16.5091C43.3772 17.3457 41.7816 17.2891 41.594 17.287C41.0999 17.2814 40.7405 17.2298 40.6269 17.2128C40.3773 17.1755 40.2837 17.144 40.4582 17.1884C40.7614 17.2655 41.3416 17.4341 42.2538 17.7278C44.0373 18.3021 46.5938 19.193 49.724 20.3279C55.9572 22.5878 64.1669 25.7064 72.3711 28.9147C80.5762 32.1236 88.7082 35.3955 94.7892 37.9594C97.8452 39.2478 100.299 40.3224 101.964 41.1043C102.82 41.506 103.325 41.7645 103.559 41.8954C103.702 41.9749 103.563 41.9071 103.302 41.7187C103.183 41.633 102.827 41.372 102.407 40.9528C102.227 40.7724 100.866 39.4707 100.25 37.221L108.586 34.9377L116.923 32.6544C116.292 30.3506 114.885 28.9834 114.628 28.7263C114.131 28.2303 113.668 27.8815 113.412 27.6972C112.878 27.3116 112.347 27.0036 111.988 26.8029C111.219 26.3734 110.28 25.9115 109.312 25.4571C107.331 24.5268 104.626 23.3464 101.505 22.0307C95.2342 19.3865 86.9502 16.0545 78.6672 12.8152C70.3822 9.5754 62.0295 6.4015 55.6161 4.0763C52.423 2.9186 49.6351 1.9437 47.5519 1.273C46.5308 0.944204 45.547 0.645505 44.718 0.434705C44.3264 0.335105 43.7747 0.204605 43.1827 0.116105C42.8978 0.0735052 42.3961 0.00820486 41.7897 0.00140486C41.4897 -0.00199514 39.8116 -0.0474965 37.9471 0.812904L41.5686 8.66101ZM108.586 34.9377L100.25 37.221C99.9572 36.1509 99.9672 35.3086 99.9672 35.2548C99.9662 35.1301 99.9692 35.0399 99.9702 34.9957C99.9722 34.9713 99.9732 34.9533 99.9732 34.9425C99.9742 34.937 99.9742 34.9328 99.9742 34.9302C99.9742 34.9325 99.9742 34.9351 99.9732 34.9396C99.9722 34.9486 99.9712 34.9615 99.9692 34.9784C99.9662 35.0126 99.9612 35.059 99.9542 35.1187C99.9402 35.2397 99.9192 35.3967 99.8912 35.5931C99.7752 36.408 99.5722 37.5962 99.2912 39.1027C98.7342 42.0896 97.9382 45.9688 97.1142 49.857C96.2932 53.7315 95.4562 57.5587 94.8232 60.4211C94.5072 61.8512 94.2422 63.038 94.0572 63.8665C93.9642 64.2807 93.8912 64.6052 93.8422 64.8255C93.8172 64.9357 93.7982 65.0198 93.7852 65.0761C93.7792 65.1043 93.7742 65.1255 93.7712 65.1395C93.7702 65.1465 93.7682 65.1517 93.7682 65.1551C93.7672 65.1568 93.7672 65.158 93.7672 65.1588C93.7672 65.1586 93.7672 65.1591 93.7672 65.1588C93.7672 65.1589 93.7672 65.1597 102.198 67.0632C110.629 68.9666 110.629 68.9664 110.629 68.9661C110.629 68.9658 110.629 68.9653 110.629 68.9648C110.63 68.9637 110.63 68.9622 110.63 68.9602C110.631 68.9562 110.633 68.9504 110.634 68.9428C110.638 68.9275 110.643 68.9051 110.65 68.8757C110.663 68.8169 110.682 68.7301 110.708 68.6172C110.758 68.3915 110.833 68.0613 110.927 67.6409C111.115 66.8004 111.382 65.5991 111.702 64.1526C112.341 61.2617 113.19 57.3819 114.025 53.4412C114.858 49.5143 115.688 45.4702 116.285 42.2714C116.581 40.685 116.836 39.2148 117.004 38.0363C117.087 37.4596 117.166 36.832 117.211 36.2411C117.233 35.9501 117.256 35.5515 117.253 35.1093C117.25 34.839 117.245 33.8326 116.923 32.6544L108.586 34.9377Z"/></clipPath></defs>
</svg>
