<svg width="1070" height="1048" viewBox="0 0 1070 1048" fill="none" xmlns="http://www.w3.org/2000/svg">
<style>
#Head {
	width: 222.49px;
	height: 220.61px;
	animation: 4.01s linear 0s infinite normal forwards running Head;
	transform-box: fill-box;
	transform-origin: 50% 50%;
}
@keyframes Head {
	0% {
		transform: translateY(0.010000000000005116px) rotate(0deg);
	}
	12.47% {
		transform: translateY(-10.569999999999993px) rotate(-10deg);
	}
	24.94% {
		transform: translateY(-10.569999999999993px) rotate(-10deg);
	}
	37.41% {
		transform: translateY(0.010000000000005116px) rotate(0deg);
	}
	100% {
		transform: translateY(0.010000000000005116px) rotate(0deg);
	}
}
#Ellipse_125 {
	width: 13px;
	height: 10px;
	animation: 4.01s linear 0s infinite normal forwards running Ellipse_125;
	transform-box: fill-box;
	transform-origin: 50% 50%;
}
@keyframes Ellipse_125 {
	0% {
		transform: scaleX(1) scaleY(1);
	}
	12.47% {
		transform: scaleX(2.69) scaleY(3);
	}
	24.94% {
		transform: scaleX(2.69) scaleY(3);
	}
	37.41% {
		transform: scaleX(1) scaleY(1);
	}
	100% {
		transform: scaleX(1) scaleY(1);
	}
}
#Group {
	width: 74.37px;
	height: 87.52px;
	animation: 4.01s linear 0s infinite normal forwards running Group;
	transform-box: fill-box;
	transform-origin: 50% 50%;
}
@keyframes Group {
	0% {
		transform: translateY(0px);
	}
	12.47% {
		transform: translateY(-9.980000000000018px);
	}
	24.94% {
		transform: translateY(-9.980000000000018px);
	}
	37.41% {
		transform: translateY(0px);
	}
	100% {
		transform: translateY(0px);
	}
}
#Group_192 {
	width: 375.59px;
	height: 398.72px;
	animation: 4.01s linear 0s infinite normal forwards running Group_192;
	transform-box: fill-box;
	transform-origin: 50% 50%;
}
@keyframes Group_192 {
	0% {
		transform: translateY(0px);
	}
	12.47% {
		transform: translateY(-10.830000000000013px);
	}
	24.94% {
		transform: translateY(-10.830000000000013px);
	}
	37.41% {
		transform: translateY(0px);
	}
	100% {
		transform: translateY(0px);
	}
}
#Group_193 {
	width: 77.72px;
	height: 107.56px;
	animation: 4.01s linear 0s infinite normal forwards running Group_193;
	transform-box: fill-box;
	transform-origin: 50% 50%;
}
@keyframes Group_193 {
	0% {
		transform: translateY(0px);
	}
	12.47% {
		transform: translateY(-10.120000000000005px);
	}
	24.94% {
		transform: translateY(-10.120000000000005px);
	}
	37.41% {
		transform: translateY(0px);
	}
	100% {
		transform: translateY(0px);
	}
}
#Ellipse_8 {
	width: 33.98px;
	height: 48.64px;
	animation: 4.01s linear 0s infinite normal forwards running Ellipse_8;
	transform-box: fill-box;
	transform-origin: 14.000000000000002% 87%;
}
@keyframes Ellipse_8 {
	0% {
		transform: scaleX(1) scaleY(1);
	}
	12.47% {
		transform: scaleX(1.47) scaleY(1.44);
	}
	24.94% {
		transform: scaleX(1.47) scaleY(1.44);
	}
	37.41% {
		transform: scaleX(1) scaleY(1);
	}
	100% {
		transform: scaleX(1) scaleY(1);
	}
}
</style>
<g id="Frame 157" clip-path="url(#clip0_540_2820)">
<g id="Pigy Ledge">
<g id="Cliff">
<g id="Cliff Side">
<mask id="mask0_540_2820" style="mask-type:alpha" maskUnits="userSpaceOnUse" x="-454" y="608" width="1374" height="920">
<path id="Rectangle 257" d="M247.785 637.898L919.331 608.068L906.209 1027.93L-27.8654 1527.95L-453.418 725.648L247.785 637.898Z" fill="#D9D9D9"/>
</mask>
<g mask="url(#mask0_540_2820)">
<g id="Cliff Side_2">
<path id="Rectangle 235" d="M990.998 673.416L-183.624 52.1143L-426.204 1660.46L608.142 1397.24L990.998 673.416Z" fill="#726AC9"/>
<path id="Rectangle 236" d="M404.613 359.083L304.708 306.239L-52.9565 1218.4L404.613 359.083Z" fill="#342F91"/>
<path id="Rectangle 244" d="M1079.02 693.324L984.367 698.43L760.254 1249.62L1079.02 693.324Z" fill="#342F91"/>
<path id="Rectangle 242" d="M221.453 262.201L-7.17521 127.064L-163.131 989.289L221.453 262.201Z" fill="#5F5DC4"/>
<path id="Rectangle 245" d="M918.947 607.919L689.73 541.854L437.322 1200.34L1082.58 1082.05L918.947 607.919Z" fill="#3E40B7"/>
<path id="Rectangle 238" d="M756.012 591.119L656.106 538.275L456.475 915.695L756.012 591.119Z" fill="#8E86DE"/>
<path id="Rectangle 243" d="M274.387 403.853L174.482 351.009L-113.956 896.325L-86.6065 928.549L274.387 403.853Z" fill="#8E86DE"/>
<path id="Rectangle 239" d="M587.451 470L398.742 370.184L-33.405 1170.47L-30.4148 1164.93L587.451 470Z" fill="#5F5DC4"/>
<path id="Rectangle 241" d="M714.35 693.392L679.822 668.025L456.476 915.7L-22.2159 1393.98L436.921 1217.89L714.35 693.392Z" fill="#5F5DC4"/>
<path id="Rectangle 240" d="M918.973 608.09L736.989 563.3L36.3634 1461.48L430.637 1216.34L895.48 662.012L918.973 608.09Z" fill="#5A58BE"/>
<path id="Rectangle 246" d="M1168.6 768.071L986.619 723.282L285.994 1621.46L680.268 1376.32L1145.11 821.994L1168.6 768.071Z" fill="#342F91"/>
</g>
</g>
</g>
<path id="Grass" d="M485.563 543.023L919.52 607.996L794.991 624.933L368.741 685.09L-186.132 693.764L-167.89 486.026L485.563 543.023Z" fill="#5DAEC4"/>
</g>
</g>
<g id="Group 170" filter="url(#filter0_d_540_2820)">
<g id="Head">
<path id="Vector" d="M383.041 222.654C407.356 258.128 457.162 266.258 494.286 240.812C531.411 215.366 541.794 165.98 517.479 130.506C493.164 95.0316 443.358 86.9019 406.234 112.348C369.109 137.794 358.726 187.179 383.041 222.654Z" fill="#4DBAD9"/>
<path id="Vector_2" d="M497.651 132.508C497.651 132.508 445.635 56.6679 411.764 79.4929C393.377 91.8839 389.031 110.37 389.031 110.37C389.031 110.37 411.749 156.822 428.284 171.882C444.819 186.943 448.728 145.717 456.965 132.538C465.202 119.36 497.651 132.508 497.651 132.508Z" fill="#5F5DC4"/>
<path id="Vector_3" d="M428.946 156.838L422.565 75.624C422.565 75.624 383.168 83.863 368.525 129.212C353.881 174.562 373.636 200.281 373.636 200.281L384.516 160.306L397.245 193.347L428.946 156.838Z" fill="#5F5DC4"/>
<path id="Vector_4" d="M552.689 172.062C552.689 172.062 552.721 116.309 514.395 91.5796C463.707 58.8736 417.476 76.5786 417.476 76.5786L435.93 105.392L496.825 131.719L528.048 141.67L530.329 166.819L552.689 172.062Z" fill="#5F5DC4"/>
<path id="Vector_5" d="M483.49 126.059C483.49 126.059 481.151 121.707 488.929 117.714C501.678 111.171 529.601 105.468 546.233 124.621C566.318 147.751 556.353 167.625 552.995 173.899C549.637 180.173 520.112 198.139 520.112 198.139C520.112 198.139 527.196 152.255 518.803 138.024C510.909 124.638 483.49 126.059 483.49 126.059Z" fill="#5F5DC4"/>
<path id="Vector_6" d="M497.508 132.089C497.508 132.089 470.917 92.5966 437.41 115.953C412.279 133.47 417.083 155.177 418.805 162.082C420.527 168.986 444.764 193.625 444.764 193.625C444.764 193.625 449.113 147.402 460.73 135.655C471.657 124.605 497.508 132.089 497.508 132.089Z" fill="#5F5DC4"/>
<path id="Vector_7" d="M513.477 126.336L502.829 129.604C502.829 129.604 513.73 139.475 516.275 148.003C518.765 156.346 515.308 170.278 515.308 170.278C515.308 170.278 526.027 148.179 523.789 140.317C521.351 131.751 513.477 126.336 513.477 126.336Z" fill="#5F5DC4"/>
<path id="Vector_8" d="M481.592 122.487L489.4 130.432C489.4 130.432 475.113 133.919 468.814 140.206C462.65 146.357 459.055 160.254 459.055 160.254C459.055 160.254 460.154 135.717 465.867 129.869C472.09 123.499 481.592 122.487 481.592 122.487Z" fill="#5F5DC4"/>
<path id="Vector_9" d="M445.973 179.13L475.188 190.542" stroke="#19404B" stroke-width="5" stroke-linecap="round"/>
<path id="Vector_10" d="M497.501 193.693L521.207 186.434" stroke="#19404B" stroke-width="5" stroke-linecap="round"/>
<path id="Ellipse_125" d="M485.241 229.292C484.917 232.515 481.906 233.111 478.334 232.752C474.762 232.393 471.982 231.216 472.306 227.993C472.63 224.769 475.788 222.446 479.36 222.805C482.931 223.163 485.565 226.068 485.241 229.292Z" fill="#19404B"/>
<path id="Ellipse_8" d="M533.721 210.874C516.525 228.949 487.396 207.907 487.396 207.907C487.396 207.907 503.614 192.613 510.434 186.181C517.253 179.749 527.995 180.063 534.426 186.882C540.857 193.701 540.541 204.443 533.721 210.874Z" fill="#CCDFFF"/>
</g>
<path id="Vector_11" d="M561.696 511.639L523.37 502.371L508.667 563.171L546.994 572.439L561.696 511.639Z" fill="#342F91"/>
<g id="Group_192">
<g id="Group">
<path id="Vector_12" d="M408.786 336.679C408.786 336.679 426.797 351.708 433.625 364.61C440.963 378.476 442.717 403.74 442.717 403.74L483.154 383.28L449.222 316.219L408.786 336.679Z" fill="#5F5DC4"/>
</g>
<g id="Group_2">
<path id="Vector_13" d="M313.532 284.694C313.532 284.694 450.967 258.424 475.147 250.11C499.327 241.795 504.852 230.479 504.852 230.479L562.579 295.355L313.532 284.694Z" fill="#332DA4"/>
</g>
<path id="Vector_14" d="M321.421 266.771L551.818 275.441L525.887 395.826L542.379 490.208L342.955 618.185C342.955 618.185 319.727 619.053 302.079 591.764C273.055 546.883 291.446 467.711 291.446 467.711L321.421 266.771Z" fill="#5F5DC4"/>
<path id="Vector_2_2" d="M379.508 278.664C409.008 276.294 431.935 262.083 430.717 246.923C429.499 231.762 404.598 221.393 375.099 223.762C345.599 226.131 322.672 240.342 323.89 255.503C325.107 270.664 350.009 281.033 379.508 278.664Z" fill="#3E40B7"/>
<g id="Group 191">
<path id="Vector_15" d="M634.577 444.355C628.532 464.054 608.034 483.851 585.198 475.688C562.361 467.525 550.503 440.041 550.503 440.041L520.57 392.589L482.509 286.394C482.509 286.394 501.126 257.84 530.551 249.675C560.508 241.361 595.316 295.253 595.316 295.253C595.316 295.253 640.623 424.657 634.577 444.355Z" fill="#5F5DC4"/>
<path id="Vector_16" d="M462.937 466.164C454.007 484.734 447.087 471.969 457.427 491.538C468.34 512.19 475.916 529.87 496.636 541.156C517.356 552.442 640.694 458.139 640.694 458.139C640.694 458.139 640.643 431.367 624.577 405.399C616.763 372.193 589.831 375.062 589.831 375.062C589.831 375.062 471.868 447.595 462.937 466.164Z" fill="#5F5DC4"/>
<path id="Vector_17" d="M595.629 426.896L596.728 424.09C596.728 424.09 593.443 407.755 575.937 400.899C558.431 394.043 546.29 399.711 546.29 399.711L545.036 403.357C545.036 403.357 556.066 395.548 573.076 402.21C590.087 408.873 595.629 426.896 595.629 426.896Z" fill="#494795"/>
<path id="Vector_18" d="M598.951 401.137L598.539 398.152C598.539 398.152 587.689 385.507 569.066 388.082C550.442 390.657 542.62 401.537 542.62 401.537L543.309 405.331C543.309 405.331 549.114 393.127 567.211 390.624C585.307 388.122 598.951 401.137 598.951 401.137Z" fill="#494795"/>
<path id="Vector_19" d="M525.639 336.127L522.77 335.205C522.77 335.205 536.49 392.019 536.168 397.131C535.846 402.243 451.088 466.079 451.088 466.079L454.819 467.062C454.819 467.062 543.327 410.155 546.054 401.67C548.781 393.184 525.639 336.127 525.639 336.127Z" fill="#494795"/>
</g>
<path id="Vector_3_2" d="M451.693 270.713C453.692 272.262 456.568 271.898 458.117 269.899C459.666 267.9 459.302 265.024 457.303 263.475C455.304 261.925 452.428 262.29 450.879 264.289C449.33 266.287 449.694 269.164 451.693 270.713Z" fill="#B4B4B4"/>
<path id="Vector_4_2" d="M449.743 273.115C448.792 280.8 448.213 300.917 448.99 310.845C450.625 331.75 452.851 348.641 459.252 358.92" stroke="#342EA7" stroke-width="5.65" stroke-linecap="round"/>
<path id="Vector_5_2" d="M480.023 268.518C482.022 270.067 484.898 269.702 486.447 267.704C487.996 265.705 487.632 262.828 485.633 261.279C483.634 259.73 480.758 260.094 479.209 262.093C477.66 264.092 478.024 266.968 480.023 268.518Z" fill="#B4B4B4"/>
<path id="Vector_6_2" d="M486.787 264.898C492.019 275.05 493.669 296.137 494.811 310.736C496.185 328.297 494.999 343.22 490.163 355.631" stroke="#342EA7" stroke-width="5.65" stroke-linecap="round"/>
<g id="Group_3" filter="url(#filter1_d_540_2820)">
<path id="Vector_20" d="M513.442 222.014C523.794 216.745 531.295 223.088 536.002 240.262C540.709 257.435 515.159 265.475 515.159 265.475C515.093 265.517 505.491 271.547 487.19 274.845L466.028 275.2C469.184 267.082 474.327 259.911 480.759 250.086C487.19 240.262 503.09 227.283 513.442 222.014Z" fill="#5F5DC4"/>
</g>
<g id="Group_4" filter="url(#filter2_d_540_2820)">
<path id="Vector_21" d="M323.892 252.78C332.939 229.725 372.435 226.054 411.894 228.66C451.353 231.266 468.405 250.48 466.797 274.823C466.797 274.823 422.902 279.405 395.036 277.565C395.014 277.564 394.993 277.563 394.971 277.562L318.134 272.487C318.906 266.926 320.917 260.364 323.892 252.78Z" fill="#5F5DC4"/>
</g>
<path id="Vector_7_2" d="M303.199 455.209C318.869 468.59 342.486 479.842 364.048 474.848C386.803 469.578 378.413 438.138 378.413 438.138L359.079 277.276C359.079 277.276 339.973 254.633 310.761 263.526C281.019 272.581 265.105 318.511 265.105 349.486C265.105 380.46 287.53 441.828 303.199 455.209Z" fill="#5F5DC4"/>
<g id="Group_5" filter="url(#filter3_d_540_2820)">
<path id="Vector_22" d="M348.007 274.31C363.466 260.687 372.376 264.542 394.013 269.199C416.847 274.115 429.769 272.032 446.241 288.924C462.714 305.816 413.179 456.903 413.179 456.903C413.179 456.903 383.241 481.472 353.894 473.034C324.015 464.444 317.721 428.186 317.721 428.186C317.721 428.186 332.548 287.934 348.007 274.31Z" fill="#5F5DC4"/>
</g>
<path id="Vector_8_2" d="M365.01 279.728L362.075 279.045C362.075 279.045 336.777 306.962 329.466 338.348C322.155 369.733 320.952 383.266 320.952 383.266L324.767 383.869C324.767 383.869 323.718 373.008 330.822 342.51C337.926 312.012 365.01 279.728 365.01 279.728Z" fill="#494795"/>
<g id="Vector_9_2" filter="url(#filter4_d_540_2820)">
<path d="M376.757 233.092C376.757 233.092 390.431 249.559 404.699 252.64C420.034 255.951 445.69 245.589 445.69 245.589L435.37 306.291C435.37 306.291 409.055 318.587 392.573 314.383C378.071 310.685 361.628 291.777 361.628 291.777L376.757 233.092Z" fill="#5F5DC4"/>
</g>
</g>
<g id="Group_193" filter="url(#filter5_d_540_2820)">
<path id="Vector_23" d="M440.795 237.306L392.877 226.024L380.881 245.521C380.881 245.521 396.273 251.125 406.759 253.043C418.272 255.149 435.56 254.692 435.56 254.692L440.795 237.306Z" fill="#4DBAD8"/>
<path id="Vector_24" d="M363.48 210.116C363.48 210.116 384.445 209.65 398.002 206.141C412.468 202.396 432.9 193.118 432.9 193.118V193.116L419.439 152.34C419.439 152.34 397.725 152.143 385.017 156.867C370.225 162.366 363.48 210.116 363.48 210.116Z" fill="#4DBAD8"/>
<path id="Vector_25" d="M363.352 210.275C363.352 210.275 381.796 199.541 395.292 195.801C409.692 191.811 432.604 191.864 432.604 191.864C432.604 191.864 436.256 197.942 439.306 208.755C442.555 220.274 440.318 239.384 440.318 239.384L396.758 248.541L363.352 210.275Z" fill="#4DBAD8"/>
<path id="Vector_26" d="M370.95 217.898L413.767 231.117L408.763 247.326L375.54 234.691L370.95 217.898Z" fill="#4DBAD8"/>
</g>
<path id="Vector_2_3" d="M644.91 444.432L639.727 532.326L507.761 524.421L644.91 444.432Z" fill="#7194C9"/>
<path id="Vector_3_3" d="M576.215 515.607L546.114 599.632C546.114 599.632 367.413 527.311 352.102 519.022C336.791 510.733 327.214 480.516 341.12 449.066C355.026 417.617 403.003 408.043 418.786 413.247C427.055 415.974 456.093 433.163 499.487 466.634C538.914 497.044 576.215 515.607 576.215 515.607Z" fill="#99C2FF"/>
<path id="Vector_4_3" d="M427.727 548.129L502.533 469.479L559.834 494.224L465.234 585.986L427.727 548.129Z" fill="#7194C9"/>
<path id="Vector_5_3" d="M551.594 575.123L525.844 580.517L530.348 602.013L556.097 596.619L551.594 575.123Z" fill="#342F91"/>
<path id="Vector_6_3" d="M531.973 519.37H591.684L650.125 498.898C650.125 498.898 673.794 529.955 672.556 553.841C671.366 576.802 643.144 608.056 643.144 608.056L588.902 596.399L530.395 602.231C530.395 602.231 550.14 580.334 551.176 562.266C552.259 543.38 531.973 519.37 531.973 519.37Z" fill="#5F5DC4"/>
<path id="Vector_7_3" d="M649.886 498.812L656.44 499.067C656.44 499.067 686.225 517.913 684.795 554.75C683.365 591.587 661.557 608.869 661.557 608.869L642.833 608.142C642.833 608.142 664.784 589.821 666.174 554.026C667.563 518.232 649.886 498.812 649.886 498.812Z" fill="#D9D9D9"/>
<path id="Vector_8_3" d="M550.682 529.525L529.988 529.615C521.5 529.652 514.648 536.564 514.685 545.052L514.806 572.726C514.843 581.214 521.754 588.066 530.243 588.029L550.936 587.939C559.425 587.902 566.276 580.99 566.239 572.502L566.118 544.828C566.082 536.34 559.17 529.488 550.682 529.525Z" fill="#5F5DC4"/>
<path id="Vector_9_3" d="M538.898 529.575L599.035 527.363C599.035 527.363 611.339 537.726 611.337 551.474C611.335 565.02 599.039 582.375 599.039 582.375L544.402 587.091C544.402 587.091 557.586 568.684 557.861 556.196C558.124 544.191 538.898 529.575 538.898 529.575Z" fill="#342F91"/>
<path id="Vector_10_2" d="M540.168 529.754L545.455 529.811C545.455 529.811 557.814 534.896 560.763 552.103C563.713 569.31 549.973 587.016 549.973 587.016L545.124 586.964C545.124 586.964 558.71 565.616 554.98 552.042C551.249 538.467 540.168 529.754 540.168 529.754Z" fill="#D9D9D9"/>
<path id="Vector_11_2" d="M563.363 527.589L568.651 527.646C568.651 527.646 581.009 532.731 583.959 549.938C586.908 567.145 573.168 584.851 573.168 584.851L568.319 584.799C568.319 584.799 581.906 563.451 578.175 549.876C574.445 536.302 563.363 527.589 563.363 527.589Z" fill="#D9D9D9"/>
<path id="Vector_12_2" d="M563.458 527.541L568.049 527.719C568.049 527.719 576.806 550.745 572.289 561.687C567.225 573.956 549.794 587.164 549.794 587.164L544.974 586.978C544.974 586.978 562.405 573.769 567.469 561.5C571.986 550.558 563.458 527.541 563.458 527.541Z" fill="#D9D9D9"/>
<path id="Vector_13_2" d="M585.445 527.757L590.898 527.754C590.898 527.754 598.973 548.882 594.456 559.824C589.392 572.093 571.961 585.302 571.961 585.302L567.14 585.115C567.14 585.115 584.571 571.906 589.635 559.637C594.152 548.695 585.445 527.757 585.445 527.757Z" fill="#D9D9D9"/>
<path id="Vector_14_2" d="M587.844 527.653L593.131 527.71C593.131 527.71 603.633 530.8 606.583 548.007C609.532 565.214 595.793 582.919 595.793 582.919L590.944 582.868C590.944 582.868 604.53 561.52 600.799 547.945C597.069 534.371 587.844 527.653 587.844 527.653Z" fill="#D9D9D9"/>
<path id="Vector_15_2" d="M463.144 628.619C463.144 628.619 469.651 601.177 463.144 584.518C456.588 567.734 443.343 554.626 443.343 554.626C443.343 554.626 586.944 416.743 598.391 411.609C609.838 406.475 682.04 396.328 698.176 422.646C714.312 448.964 680.584 510.553 671.058 517.7C661.532 524.848 463.144 628.619 463.144 628.619Z" fill="#99C2FF"/>
<path id="Vector_16_2" d="M338.573 522.026H343.721L359.465 576.345L348.482 631.316H331.036C331.036 631.316 324.413 597.965 324.444 576.343C324.474 554.975 338.573 522.026 338.573 522.026Z" fill="#9F9F9F"/>
<path id="Vector_17_2" d="M443.519 598.085L469.268 603.48L464.765 624.976L439.015 619.582L443.519 598.085Z" fill="#342F91"/>
<path id="Vector_18_2" d="M463.139 542.339H403.428L344.987 521.867C344.987 521.867 350.73 552.422 351.968 576.307C353.158 599.269 351.968 631.025 351.968 631.025L406.21 619.368L464.716 625.2C464.716 625.2 444.972 603.303 443.936 585.235C442.853 566.349 463.139 542.339 463.139 542.339Z" fill="#5F5DC4"/>
<path id="Vector_19_2" d="M345.226 521.777L338.672 522.031C338.672 522.031 348.119 540.188 349.548 577.025C350.978 613.862 333.557 631.833 333.557 631.833L352.28 631.106C352.28 631.106 369.56 612.097 368.171 576.302C366.781 540.508 345.226 521.777 345.226 521.777Z" fill="#D9D9D9"/>
<path id="Vector_20_2" d="M444.431 552.473L465.125 552.563C473.613 552.6 480.465 559.512 480.428 568L480.307 595.674C480.27 604.162 473.359 611.014 464.87 610.977L444.177 610.887C435.689 610.85 428.837 603.938 428.874 595.45L428.995 567.776C429.032 559.288 435.943 552.436 444.431 552.473Z" fill="#5F5DC4"/>
<path id="Vector_21_2" d="M456.214 552.528L396.076 550.316C396.076 550.316 383.772 560.679 383.774 574.427C383.777 587.973 396.073 605.327 396.073 605.327L450.709 610.044C450.709 610.044 437.525 591.637 437.251 579.148C436.987 567.143 456.214 552.528 456.214 552.528Z" fill="#342F91"/>
<path id="Vector_22_2" d="M454.945 552.703L449.658 552.76C449.658 552.76 437.299 557.845 434.35 575.052C431.4 592.259 445.14 609.965 445.14 609.965L449.989 609.913C449.989 609.913 436.403 588.565 440.133 574.99C443.863 561.416 454.945 552.703 454.945 552.703Z" fill="#D9D9D9"/>
<path id="Vector_23_2" d="M431.75 550.542L426.461 550.599C426.461 550.599 414.103 555.684 411.153 572.891C408.204 590.098 421.944 607.805 421.944 607.805L426.793 607.753C426.793 607.753 413.206 586.404 416.937 572.829C420.667 559.255 431.75 550.542 431.75 550.542Z" fill="#D9D9D9"/>
<path id="Vector_24_2" d="M431.654 550.494L427.064 550.673C427.064 550.673 418.306 573.699 422.823 584.641C427.887 596.91 445.318 610.119 445.318 610.119L450.139 609.932C450.139 609.932 432.708 596.723 427.644 584.454C423.127 573.512 431.654 550.494 431.654 550.494Z" fill="#D9D9D9"/>
<path id="Vector_25_2" d="M409.669 550.71L404.216 550.707C404.216 550.707 396.141 571.835 400.658 582.777C405.722 595.046 423.153 608.255 423.153 608.255L427.974 608.067C427.974 608.067 410.543 594.859 405.479 582.59C400.962 571.648 409.669 550.71 409.669 550.71Z" fill="#D9D9D9"/>
<path id="Vector_26_2" d="M407.268 550.607L401.981 550.664C401.981 550.664 391.478 553.754 388.529 570.961C385.579 588.168 399.319 605.873 399.319 605.873L404.168 605.821C404.168 605.821 390.582 584.474 394.312 570.899C398.042 557.325 407.268 550.607 407.268 550.607Z" fill="#D9D9D9"/>
<rect id="Rectangle 654" opacity="0.01" x="330.102" y="34.2788" width="0.817017" height="2.16309" fill="#D9D9D9"/>
</g>
</g>
<defs>
<filter id="filter0_d_540_2820" x="265.105" y="34.2788" width="457.376" height="605.555" filterUnits="userSpaceOnUse" color-interpolation-filters="sRGB">
<feFlood flood-opacity="0" result="BackgroundImageFix"/>
<feColorMatrix in="SourceAlpha" type="matrix" values="0 0 0 0 0 0 0 0 0 0 0 0 0 0 0 0 0 0 127 0" result="hardAlpha"/>
<feOffset dx="16" dy="4"/>
<feGaussianBlur stdDeviation="2"/>
<feColorMatrix type="matrix" values="0 0 0 0 0 0 0 0 0 0 0 0 0 0 0 0 0 0 0.25 0"/>
<feBlend mode="normal" in2="BackgroundImageFix" result="effect1_dropShadow_540_2820"/>
<feBlend mode="normal" in="SourceGraphic" in2="effect1_dropShadow_540_2820" result="shape"/>
</filter>
<filter id="filter1_d_540_2820" x="461.508" y="220.211" width="79.5926" height="65.5083" filterUnits="userSpaceOnUse" color-interpolation-filters="sRGB">
<feFlood flood-opacity="0" result="BackgroundImageFix"/>
<feColorMatrix in="SourceAlpha" type="matrix" values="0 0 0 0 0 0 0 0 0 0 0 0 0 0 0 0 0 0 127 0" result="hardAlpha"/>
<feOffset dy="6"/>
<feGaussianBlur stdDeviation="2.26"/>
<feComposite in2="hardAlpha" operator="out"/>
<feColorMatrix type="matrix" values="0 0 0 0 0 0 0 0 0 0 0 0 0 0 0 0 0 0 0.25 0"/>
<feBlend mode="normal" in2="BackgroundImageFix" result="effect1_dropShadow_540_2820"/>
<feBlend mode="normal" in="SourceGraphic" in2="effect1_dropShadow_540_2820" result="shape"/>
</filter>
<filter id="filter2_d_540_2820" x="313.614" y="227.939" width="157.807" height="59.102" filterUnits="userSpaceOnUse" color-interpolation-filters="sRGB">
<feFlood flood-opacity="0" result="BackgroundImageFix"/>
<feColorMatrix in="SourceAlpha" type="matrix" values="0 0 0 0 0 0 0 0 0 0 0 0 0 0 0 0 0 0 127 0" result="hardAlpha"/>
<feOffset dy="4.52"/>
<feGaussianBlur stdDeviation="2.26"/>
<feComposite in2="hardAlpha" operator="out"/>
<feColorMatrix type="matrix" values="0 0 0 0 0 0 0 0 0 0 0 0 0 0 0 0 0 0 0.25 0"/>
<feBlend mode="normal" in2="BackgroundImageFix" result="effect1_dropShadow_540_2820"/>
<feBlend mode="normal" in="SourceGraphic" in2="effect1_dropShadow_540_2820" result="shape"/>
</filter>
<filter id="filter3_d_540_2820" x="313.721" y="264.891" width="139.875" height="217.907" filterUnits="userSpaceOnUse" color-interpolation-filters="sRGB">
<feFlood flood-opacity="0" result="BackgroundImageFix"/>
<feColorMatrix in="SourceAlpha" type="matrix" values="0 0 0 0 0 0 0 0 0 0 0 0 0 0 0 0 0 0 127 0" result="hardAlpha"/>
<feOffset dy="4"/>
<feGaussianBlur stdDeviation="2"/>
<feColorMatrix type="matrix" values="0 0 0 0 0 0 0 0 0 0 0 0 0 0 0 0 0 0 0.25 0"/>
<feBlend mode="normal" in2="BackgroundImageFix" result="effect1_dropShadow_540_2820"/>
<feBlend mode="normal" in="SourceGraphic" in2="effect1_dropShadow_540_2820" result="shape"/>
</filter>
<filter id="filter4_d_540_2820" x="357.628" y="233.092" width="92.0615" height="91.1665" filterUnits="userSpaceOnUse" color-interpolation-filters="sRGB">
<feFlood flood-opacity="0" result="BackgroundImageFix"/>
<feColorMatrix in="SourceAlpha" type="matrix" values="0 0 0 0 0 0 0 0 0 0 0 0 0 0 0 0 0 0 127 0" result="hardAlpha"/>
<feOffset dy="5"/>
<feGaussianBlur stdDeviation="2"/>
<feComposite in2="hardAlpha" operator="out"/>
<feColorMatrix type="matrix" values="0 0 0 0 0 0 0 0 0 0 0 0 0 0 0 0 0 0 0.25 0"/>
<feBlend mode="normal" in2="BackgroundImageFix" result="effect1_dropShadow_540_2820"/>
<feBlend mode="normal" in="SourceGraphic" in2="effect1_dropShadow_540_2820" result="shape"/>
</filter>
<filter id="filter5_d_540_2820" x="363.352" y="144.339" width="87.7168" height="110.396" filterUnits="userSpaceOnUse" color-interpolation-filters="sRGB">
<feFlood flood-opacity="0" result="BackgroundImageFix"/>
<feColorMatrix in="SourceAlpha" type="matrix" values="0 0 0 0 0 0 0 0 0 0 0 0 0 0 0 0 0 0 127 0" result="hardAlpha"/>
<feOffset dx="6" dy="-4"/>
<feGaussianBlur stdDeviation="2"/>
<feComposite in2="hardAlpha" operator="out"/>
<feColorMatrix type="matrix" values="0 0 0 0 0 0 0 0 0 0 0 0 0 0 0 0 0 0 0.25 0"/>
<feBlend mode="normal" in2="BackgroundImageFix" result="effect1_dropShadow_540_2820"/>
<feBlend mode="normal" in="SourceGraphic" in2="effect1_dropShadow_540_2820" result="shape"/>
</filter>
<clipPath id="clip0_540_2820">
<rect width="1070" height="1048" fill="white"/>
</clipPath>
</defs>
</svg>
